<svg id="Outline" xmlns="http://www.w3.org/2000/svg" width="40.253" height="40.253" viewBox="0 0 40.253 40.253">
  <path id="Path_690" data-name="Path 690" d="M17.145,256.2A.671.671,0,0,0,16,256.67v18.785a.671.671,0,0,0,.671.671H35.455a.671.671,0,0,0,.474-1.145Zm.2,18.588V258.29l16.494,16.494Z" transform="translate(-16 -235.873)" fill="#636e7b"/>
  <path id="Path_691" data-name="Path 691" d="M64.671,374.708h5.367a.671.671,0,0,0,.474-1.145L65.145,368.2A.671.671,0,0,0,64,368.67v5.367A.671.671,0,0,0,64.671,374.708Zm.671-4.418,3.077,3.076H65.342Z" transform="translate(-59.975 -338.481)" fill="#636e7b"/>
  <path id="Path_692" data-name="Path 692" d="M104,48h1.342v1.342H104Z" transform="translate(-96.62 -45.317)" fill="#636e7b"/>
  <path id="Path_693" data-name="Path 693" d="M136,48h1.342v1.342H136Z" transform="translate(-125.937 -45.317)" fill="#636e7b"/>
  <path id="Path_694" data-name="Path 694" d="M168,48h1.342v1.342H168Z" transform="translate(-155.253 -45.317)" fill="#636e7b"/>
  <path id="Path_695" data-name="Path 695" d="M176.4,130.742a.661.661,0,0,0-.4.612v7.38a.671.671,0,0,0,.4.613l6.038,2.683a.668.668,0,0,0,.545,0h0l6.038-2.684a.671.671,0,0,0,.4-.613v-7.38a.661.661,0,0,0-.4-.612h0l-6.038-2.684a.672.672,0,0,0-.545,0l-6.038,2.684Zm5.639,9.643-4.7-2.087v-5.911l4.7,2.087Zm6.038-2.087-4.7,2.087v-5.911l4.7-2.087Zm-5.367-8.893,4.386,1.949-4.386,1.949-4.386-1.949Z" transform="translate(-162.582 -118.608)" fill="#636e7b"/>
  <path id="Path_696" data-name="Path 696" d="M248,320h1.342v3.354H248Z" transform="translate(-228.545 -294.507)" fill="#636e7b"/>
  <path id="Path_697" data-name="Path 697" d="M248,72h1.342v3.354H248Z" transform="translate(-228.545 -67.304)" fill="#636e7b"/>
  <path id="Path_698" data-name="Path 698" d="M0,0H1.342V3.113H0Z" transform="translate(8.428 11.344) rotate(-64.46)" fill="#636e7b"/>
  <path id="Path_699" data-name="Path 699" d="M0,0H3.113V1.342H0Z" transform="translate(28.422 11.465) rotate(-25.54)" fill="#636e7b"/>
  <path id="Path_700" data-name="Path 700" d="M0,0H3.113V1.342H0Z" transform="translate(8.428 22.197) rotate(-25.54)" fill="#636e7b"/>
  <path id="Path_701" data-name="Path 701" d="M106.886,46.86H102.86V36.4L106.8,32.46a2.568,2.568,0,0,0-3.632-3.632l-.312.312V23.38a.671.671,0,0,0-.2-.474L95.955,16.2a.671.671,0,0,0-.474-.2h-20.8A2.687,2.687,0,0,0,72,18.684V38.139h1.342V18.684a1.343,1.343,0,0,1,1.342-1.342H94.81v4.025a2.687,2.687,0,0,0,2.684,2.684h4.025v6.431L90.981,41.019a.672.672,0,0,0-.183.343l-.671,3.354a.671.671,0,0,0,.789.789l3.354-.671a.671.671,0,0,0,.343-.183l6.905-6.905V46.86H88.1a.671.671,0,0,0-.671.671v2.013H84.076v1.342H87.43V52.9a.671.671,0,0,0,.671.671h18.785a.671.671,0,0,0,.671-.671V47.531A.671.671,0,0,0,106.886,46.86ZM96.152,21.367V18.291l4.418,4.418H97.493A1.343,1.343,0,0,1,96.152,21.367ZM92.4,41.493,102.86,31.037l1.735,1.735L94.139,43.228Zm12.584-12.076a1.227,1.227,0,0,1,.867,2.094l-.312.312-1.735-1.735.312-.312a1.218,1.218,0,0,1,.867-.359ZM91.867,42.854l.911.911-1.138.228Zm14.347,9.373H88.772V48.2h1.342v1.342h1.342V48.2H92.8v1.342h1.342V48.2h1.342v1.342h1.342V48.2h1.342v1.342h1.342V48.2h1.342v1.342h1.342V48.2h1.342v1.342h1.342V48.2h1.342Z" transform="translate(-67.304 -16)" fill="#636e7b"/>
</svg>
