<svg xmlns="http://www.w3.org/2000/svg" width="47.275" height="47.276" viewBox="0 0 47.275 47.276">
  <path id="pencil" d="M46.98,8.116a.627.627,0,0,0-.6-.027l-4.752,2.34L39.8,6.713l5.251-2.585a.626.626,0,0,0,.206-.962c-.166-.2-.348-.4-.543-.594A8.783,8.783,0,0,0,29.714,8.783a8.93,8.93,0,0,0,.05.932l-5.79,5.79L11.152,2.7a.627.627,0,0,0-.337-.174L1.7.974A.626.626,0,0,0,.98,1.7l1.552,9.112a.626.626,0,0,0,.174.337L15.512,23.969,9.718,29.763a8.775,8.775,0,0,0-9.71,8.873.626.626,0,0,0,.9.551l4.752-2.34,1.829,3.715L2.242,43.147a.626.626,0,0,0-.206.962c.166.2.348.4.543.594a8.783,8.783,0,0,0,14.994-6.211,8.929,8.929,0,0,0-.05-.932l5.785-5.785L33.841,42.329A5.966,5.966,0,0,0,38.085,44.1h0a5.968,5.968,0,0,0,4.243-1.765s0-.006,0-.008a6,6,0,0,0-.006-8.488L31.782,23.3l5.789-5.789a8.873,8.873,0,0,0,.928.05A8.775,8.775,0,0,0,47.282,8.8q0-.078,0-.156a.627.627,0,0,0-.3-.524ZM5.437,9.3,34.577,38.5,33.183,39.89,4.035,10.7ZM35.463,37.611,6.322,8.416l2.1-2.1L37.617,35.456Zm3.04-3.04L9.308,5.43l1.4-1.4L39.9,33.177ZM2.363,2.357l7.047,1.2L3.563,9.4Zm11.752,41.46A7.54,7.54,0,0,1,3.548,43.9l5.059-2.49a.626.626,0,0,0,.285-.838L6.51,35.733a.626.626,0,0,0-.838-.285L1.311,37.594a7.455,7.455,0,0,1,2.153-4.428A7.531,7.531,0,1,1,14.115,43.817Zm3.121-7.742A8.777,8.777,0,0,0,11.2,30.049L16.4,24.855l6.026,6.034Zm25.6,2a4.716,4.716,0,0,1-1.391,3.359s0,.01,0,.012a4.724,4.724,0,0,1-3.354,1.394h0a4.722,4.722,0,0,1-3.358-1.4l-.659-.663,6.715-6.717.66.658A4.715,4.715,0,0,1,42.835,38.079ZM30.895,22.416,24.861,16.39,30.052,11.2a8.777,8.777,0,0,0,6.034,6.026Zm12.929-8.308a7.527,7.527,0,1,1-.084-10.733L38.68,5.866a.626.626,0,0,0-.285.838l2.383,4.839a.626.626,0,0,0,.838.285l4.361-2.147a7.455,7.455,0,0,1-2.153,4.428Z" transform="translate(-0.007 0)" fill="#636e7b" opacity="0.9"/>
</svg>
