<svg xmlns="http://www.w3.org/2000/svg" width="123.805" height="99.922" viewBox="0 0 123.805 99.922">
  <g id="Dashboard" transform="translate(-1 -30.256)">
    <g id="Group_1718" data-name="Group 1718" transform="translate(0 29.35)">
      <g id="Group_1695" data-name="Group 1695" transform="translate(1 0.906)">
        <g id="Group_1692" data-name="Group 1692">
          <path id="Path_39" data-name="Path 39" d="M158.284,180.969H45.761a4.231,4.231,0,0,1-4.231-4.231V88.1a4.231,4.231,0,0,1,4.231-4.231H158.284a4.231,4.231,0,0,1,4.231,4.231v88.64A4.231,4.231,0,0,1,158.284,180.969Z" transform="translate(-40.119 -82.457)" fill="none"/>
          <g id="Path_47" data-name="Path 47" transform="translate(-36.529 -78.867)" fill="none">
            <path d="M154.694,178.789H42.17a5.647,5.647,0,0,1-5.641-5.641V84.508a5.647,5.647,0,0,1,5.641-5.641H154.693a5.647,5.647,0,0,1,5.641,5.641v88.64A5.647,5.647,0,0,1,154.694,178.789ZM42.17,81.688a2.824,2.824,0,0,0-2.821,2.821v88.64a2.824,2.824,0,0,0,2.821,2.821H154.693a2.824,2.824,0,0,0,2.821-2.821V84.508a2.824,2.824,0,0,0-2.821-2.821Z" stroke="none"/>
            <path d="M 154.6936187744141 178.7894134521484 L 42.17013931274414 178.7894134521484 C 39.05963134765625 178.7894134521484 36.52902984619141 176.2588195800781 36.52902984619141 173.1483459472656 L 36.52902984619141 84.50812530517578 C 36.52902984619141 81.39762878417969 39.05963134765625 78.86705017089844 42.17013931274414 78.86705017089844 L 154.693359375 78.86705017089844 C 157.8038482666016 78.86705017089844 160.33447265625 81.39762878417969 160.33447265625 84.50812530517578 L 160.33447265625 173.1483459472656 C 160.3347320556641 176.2588195800781 157.8041076660156 178.7894134521484 154.6936187744141 178.7894134521484 Z M 42.17013931274414 81.68759918212891 C 40.61488342285156 81.68759918212891 39.34959411621094 82.95286560058594 39.34959411621094 84.50812530517578 L 39.34959411621094 173.1483459472656 C 39.34959411621094 174.70361328125 40.61488342285156 175.9689025878906 42.17013931274414 175.9689025878906 L 154.693359375 175.9689025878906 C 156.2485809326172 175.9689025878906 157.5138854980469 174.70361328125 157.5138854980469 173.1483459472656 L 157.5138854980469 84.50812530517578 C 157.5138854980469 82.95286560058594 156.2485809326172 81.68759918212891 154.693359375 81.68759918212891 L 42.17013931274414 81.68759918212891 Z" stroke="none" fill="#636e7b"/>
          </g>
          <line id="Line_1" data-name="Line 1" x2="119" transform="translate(2.5 21.826)" fill="none" stroke="#636e7b" stroke-width="2"/>
        </g>
        <g id="Group_1694" data-name="Group 1694" transform="translate(10.773 7.333)">
          <g id="Group_1693" data-name="Group 1693" transform="translate(0 1.41)">
            <g id="Path_681" data-name="Path 681" fill="none">
              <path d="M3.075,0A3.075,3.075,0,1,1,0,3.075,3.075,3.075,0,0,1,3.075,0Z" stroke="none"/>
              <path d="M 3.074679374694824 1.999999523162842 C 2.482099294662476 1.999999523162842 1.999999523162842 2.482099294662476 1.999999523162842 3.074679374694824 C 1.999999523162842 3.667259454727173 2.482099294662476 4.149359226226807 3.074679374694824 4.149359226226807 C 3.667259454727173 4.149359226226807 4.149359226226807 3.667259454727173 4.149359226226807 3.074679374694824 C 4.149359226226807 2.482099294662476 3.667259454727173 1.999999523162842 3.074679374694824 1.999999523162842 M 3.074679374694824 -4.76837158203125e-07 C 4.77277946472168 -4.76837158203125e-07 6.149359226226807 1.376579284667969 6.149359226226807 3.074679374694824 C 6.149359226226807 4.77277946472168 4.77277946472168 6.149359226226807 3.074679374694824 6.149359226226807 C 1.376579284667969 6.149359226226807 -4.76837158203125e-07 4.77277946472168 -4.76837158203125e-07 3.074679374694824 C -4.76837158203125e-07 1.376579284667969 1.376579284667969 -4.76837158203125e-07 3.074679374694824 -4.76837158203125e-07 Z" stroke="none" fill="#636e7b"/>
            </g>
            <g id="Path_679" data-name="Path 679" transform="translate(9.816)" fill="none">
              <path d="M3.075,0A3.075,3.075,0,1,1,0,3.075,3.075,3.075,0,0,1,3.075,0Z" stroke="none"/>
              <path d="M 3.074679374694824 1.999999523162842 C 2.482099294662476 1.999999523162842 1.999999523162842 2.482099294662476 1.999999523162842 3.074679374694824 C 1.999999523162842 3.667259454727173 2.482099294662476 4.149359226226807 3.074679374694824 4.149359226226807 C 3.667259454727173 4.149359226226807 4.149359226226807 3.667259454727173 4.149359226226807 3.074679374694824 C 4.149359226226807 2.482099294662476 3.667259454727173 1.999999523162842 3.074679374694824 1.999999523162842 M 3.074679374694824 -4.76837158203125e-07 C 4.77277946472168 -4.76837158203125e-07 6.149359226226807 1.376579284667969 6.149359226226807 3.074679374694824 C 6.149359226226807 4.77277946472168 4.77277946472168 6.149359226226807 3.074679374694824 6.149359226226807 C 1.376579284667969 6.149359226226807 -4.76837158203125e-07 4.77277946472168 -4.76837158203125e-07 3.074679374694824 C -4.76837158203125e-07 1.376579284667969 1.376579284667969 -4.76837158203125e-07 3.074679374694824 -4.76837158203125e-07 Z" stroke="none" fill="#636e7b"/>
            </g>
            <g id="Path_680" data-name="Path 680" transform="translate(19.631)" fill="none">
              <path d="M3.075,0A3.075,3.075,0,1,1,0,3.075,3.075,3.075,0,0,1,3.075,0Z" stroke="none"/>
              <path d="M 3.074679374694824 1.999999523162842 C 2.482099294662476 1.999999523162842 1.999999523162842 2.482099294662476 1.999999523162842 3.074679374694824 C 1.999999523162842 3.667259454727173 2.482099294662476 4.149359226226807 3.074679374694824 4.149359226226807 C 3.667259454727173 4.149359226226807 4.149359226226807 3.667259454727173 4.149359226226807 3.074679374694824 C 4.149359226226807 2.482099294662476 3.667259454727173 1.999999523162842 3.074679374694824 1.999999523162842 M 3.074679374694824 -4.76837158203125e-07 C 4.77277946472168 -4.76837158203125e-07 6.149359226226807 1.376579284667969 6.149359226226807 3.074679374694824 C 6.149359226226807 4.77277946472168 4.77277946472168 6.149359226226807 3.074679374694824 6.149359226226807 C 1.376579284667969 6.149359226226807 -4.76837158203125e-07 4.77277946472168 -4.76837158203125e-07 3.074679374694824 C -4.76837158203125e-07 1.376579284667969 1.376579284667969 -4.76837158203125e-07 3.074679374694824 -4.76837158203125e-07 Z" stroke="none" fill="#636e7b"/>
            </g>
          </g>
          <path id="Path_48" data-name="Path 48" d="M334.523,115.429h-38.4V108.52h38.4a1.41,1.41,0,0,1,1.41,1.41v4.089A1.411,1.411,0,0,1,334.523,115.429Z" transform="translate(-233.673 -107.49)" fill="#636e7d"/>
          <g id="Path_49" data-name="Path 49" transform="translate(-217.543 -104.867)" fill="none">
            <path d="M280.178,105.985a3.824,3.824,0,1,0-1.19,6.212l1.226,1.226a1.41,1.41,0,0,0,1.994-1.994l-1.226-1.226A3.827,3.827,0,0,0,280.178,105.985Zm-3.413,1.994a1,1,0,1,1,0,1.419A1,1,0,0,1,276.764,107.979Z" stroke="none"/>
            <path d="M 277.4736328125 104.8665084838867 C 278.4528503417969 104.8665084838867 279.4320983886719 105.2392425537109 280.1776123046875 105.9847106933594 C 281.3162231445312 107.1233673095703 281.5821533203125 108.8061218261719 280.9816589355469 110.2025680541992 L 282.2081298828125 111.4289321899414 C 282.7586669921875 111.9795074462891 282.7586669921875 112.8727645874023 282.2081298828125 113.42333984375 C 281.657470703125 113.9739227294922 280.7642517089844 113.9739227294922 280.2136535644531 113.42333984375 L 278.9872436523438 112.1969604492188 C 277.5911560058594 112.7971496582031 275.9084167480469 112.5312194824219 274.7697143554688 111.3925399780273 C 273.27880859375 109.9016036987305 273.27880859375 107.4756546020508 274.7697143554688 105.9847106933594 C 275.5151977539062 105.2392425537109 276.4944152832031 104.8665084838867 277.4736328125 104.8665084838867 Z M 277.4736328125 109.6915435791016 C 277.7305908203125 109.6915435791016 277.987548828125 109.5937423706055 278.1831665039062 109.3981323242188 C 278.5743408203125 109.0069274902344 278.5743408203125 108.3703308105469 278.1831665039062 107.9791107177734 C 277.7919311523438 107.5879287719727 277.1553649902344 107.5878829956055 276.7641296386719 107.9791107177734 C 276.3729858398438 108.3703308105469 276.3729858398438 109.0069274902344 276.7641296386719 109.3981323242188 C 276.9597473144531 109.5937423706055 277.2167053222656 109.6915435791016 277.4736328125 109.6915435791016 Z" stroke="none" fill="#636e7b"/>
          </g>
        </g>
      </g>
    </g>
    <g id="Path_688" data-name="Path 688" transform="matrix(1, 0.017, -0.017, 1, -151.902, -143.036)" fill="none">
      <path d="M177.5,239.387h-5.711c-.488,0-.884-1.913-.884-4.271V207.51c0-2.359.4-4.271.884-4.271H177.5c.488,0,.884,1.913.884,4.271v27.606C178.381,237.475,177.985,239.387,177.5,239.387Z" stroke="none"/>
      <path d="M 176.2266845703125 237.3872985839844 C 176.3092193603516 236.8586730957031 176.3809814453125 236.0921630859375 176.3809814453125 235.1158142089844 L 176.3809814453125 207.5095520019531 C 176.3809814453125 206.5332641601562 176.3091888427734 205.7667388916016 176.2266235351562 205.2380676269531 L 173.0574493408203 205.2380676269531 C 172.9748840332031 205.7667388916016 172.9031066894531 206.5332641601562 172.9031066894531 207.5095520019531 L 172.9031066894531 235.1158142089844 C 172.9031066894531 236.0921173095703 172.9748840332031 236.858642578125 173.0574493408203 237.3872985839844 L 176.2266845703125 237.3872985839844 M 177.4973602294922 239.3872985839844 L 171.7867126464844 239.3872985839844 C 171.2987823486328 239.3872985839844 170.9031066894531 237.4745788574219 170.9031066894531 235.1158142089844 L 170.9031066894531 207.5095520019531 C 170.9031066894531 205.1508483886719 171.2987823486328 203.2380676269531 171.7867126464844 203.2380676269531 L 177.4973602294922 203.2380676269531 C 177.9852905273438 203.2380676269531 178.3809814453125 205.1508483886719 178.3809814453125 207.5095520019531 L 178.3809814453125 235.1158142089844 C 178.3809814453125 237.4745788574219 177.9854736328125 239.3872985839844 177.4973602294922 239.3872985839844 Z" stroke="none" fill="#636e7b"/>
    </g>
    <g id="Path_689" data-name="Path 689" transform="matrix(1, 0.017, -0.017, 1, -141.099, -131.775)" fill="none" stroke-linejoin="round">
      <path d="M177.5,228.125h-5.711c-.488,0-.884-1.317-.884-2.941V206.179c0-1.624.4-2.941.884-2.941H177.5c.488,0,.884,1.317.884,2.941v19.005C178.381,226.808,177.985,228.125,177.5,228.125Z" stroke="none"/>
      <path d="M 176.3210144042969 226.1248474121094 C 176.3556976318359 225.8688201904297 176.3809814453125 225.5516815185547 176.3809814453125 225.1841735839844 L 176.3809814453125 206.1787414550781 C 176.3809814453125 205.8112640380859 176.3556823730469 205.4940948486328 176.3209838867188 205.2380676269531 L 172.9631042480469 205.2380676269531 C 172.9284057617188 205.4940948486328 172.9031066894531 205.8112640380859 172.9031066894531 206.1787414550781 L 172.9031066894531 225.1841735839844 C 172.9031066894531 225.5516510009766 172.9284057617188 225.8688201904297 172.9631042480469 226.1248474121094 L 176.3210144042969 226.1248474121094 M 177.4973602294922 228.1248474121094 L 171.7867126464844 228.1248474121094 C 171.2987823486328 228.1248474121094 170.9031066894531 226.8080444335938 170.9031066894531 225.1841735839844 L 170.9031066894531 206.1787414550781 C 170.9031066894531 204.5549011230469 171.2987823486328 203.2380676269531 171.7867126464844 203.2380676269531 L 177.4973602294922 203.2380676269531 C 177.9852905273438 203.2380676269531 178.3809814453125 204.5549011230469 178.3809814453125 206.1787414550781 L 178.3809814453125 225.1841735839844 C 178.3809814453125 226.8080444335938 177.9854736328125 228.1248474121094 177.4973602294922 228.1248474121094 Z" stroke="none" fill="#636e7b"/>
    </g>
    <g id="Path_690" data-name="Path 690" transform="matrix(1, 0.017, -0.017, 1, -131.281, -121.323)" fill="none">
      <path d="M177.5,217.672h-5.711c-.488,0-.884-.764-.884-1.705V204.944c0-.942.4-1.705.884-1.705H177.5c.488,0,.884.764.884,1.705v11.022C178.381,216.908,177.985,217.672,177.5,217.672Z" stroke="none"/>
      <path d="M 176.3809814453125 215.6715087890625 L 176.3809814453125 205.2380676269531 L 172.9031066894531 205.2380676269531 L 172.9031066894531 215.6715087890625 L 176.3809814453125 215.6715087890625 M 177.4973602294922 217.6715087890625 L 171.7867126464844 217.6715087890625 C 171.2987823486328 217.6715087890625 170.9031066894531 216.9078063964844 170.9031066894531 215.9660339355469 L 170.9031066894531 204.9435577392578 C 170.9031066894531 204.0018005371094 171.2987823486328 203.2380676269531 171.7867126464844 203.2380676269531 L 177.4973602294922 203.2380676269531 C 177.9852905273438 203.2380676269531 178.3809814453125 204.0018005371094 178.3809814453125 204.9435577392578 L 178.3809814453125 215.9660339355469 C 178.3809814453125 216.9078063964844 177.9854736328125 217.6715087890625 177.4973602294922 217.6715087890625 Z" stroke="none" fill="#636e7b"/>
    </g>
    <g id="Group_1719" data-name="Group 1719" transform="translate(8.901 96.954)">
      <path id="Path_53" data-name="Path 53" d="M213.207,254.213H172.4a1.413,1.413,0,1,0,0,2.821h40.8a1.413,1.413,0,1,0,0-2.821Z" transform="translate(-170.903 -254.213)" fill="#636e7b"/>
    </g>
    <g id="Group_1720" data-name="Group 1720" transform="translate(74.901 103.954)">
      <path id="Path_53-2" data-name="Path 53" d="M213.207,254.213H172.4a1.413,1.413,0,1,0,0,2.821h40.8a1.413,1.413,0,1,0,0-2.821Z" transform="translate(-170.903 -254.213)" fill="#636e7b"/>
    </g>
    <g id="Group_1721" data-name="Group 1721" transform="translate(8.901 109.954)">
      <path id="Path_53-3" data-name="Path 53" d="M276.947,254.213H174.663c-2.077,0-3.76.632-3.76,1.41s1.684,1.41,3.76,1.41H276.947c2.077,0,3.761-.632,3.761-1.41s-1.684-1.41-3.761-1.41Z" transform="translate(-170.903 -254.213)" fill="#636e7b"/>
    </g>
    <g id="Group_1722" data-name="Group 1722" transform="translate(25.797 114.954)">
      <path id="Path_53-4" data-name="Path 53" d="M260.629,254.213H174.085c-1.757,0-3.182.632-3.182,1.41s1.425,1.41,3.182,1.41h86.544c1.757,0,3.182-.632,3.182-1.41s-1.425-1.41-3.182-1.41Z" transform="translate(-170.903 -254.213)" fill="#636e7b"/>
    </g>
    <g id="Path_691" data-name="Path 691" transform="translate(79 67.582)" fill="none">
      <path d="M16,0A16,16,0,1,1,0,16,16,16,0,0,1,16,0Z" stroke="none"/>
      <path d="M 16 2 C 12.26045989990234 2 8.744749069213867 3.456249237060547 6.100500106811523 6.100500106811523 C 3.456249237060547 8.744749069213867 2 12.26045989990234 2 16 C 2 19.73954010009766 3.456249237060547 23.2552490234375 6.100500106811523 25.89949989318848 C 8.744749069213867 28.54375076293945 12.26045989990234 30 16 30 C 19.73954010009766 30 23.2552490234375 28.54375076293945 25.89949989318848 25.89949989318848 C 28.54375076293945 23.2552490234375 30 19.73954010009766 30 16 C 30 12.26045989990234 28.54375076293945 8.744749069213867 25.89949989318848 6.100500106811523 C 23.2552490234375 3.456249237060547 19.73954010009766 2 16 2 M 16 0 C 24.8365592956543 0 32 7.163440704345703 32 16 C 32 24.8365592956543 24.8365592956543 32 16 32 C 7.163440704345703 32 0 24.8365592956543 0 16 C 0 7.163440704345703 7.163440704345703 0 16 0 Z" stroke="none" fill="#636e7b"/>
    </g>
    <line id="Line_2" data-name="Line 2" y2="29" transform="translate(95.5 69.082)" fill="none" stroke="#636e7b" stroke-width="2"/>
    <line id="Line_3" data-name="Line 3" x1="14" y1="3" transform="translate(95.5 84.082)" fill="none" stroke="#636e7b" stroke-width="2"/>
    <line id="Line_4" data-name="Line 4" x1="14" y1="3" transform="translate(95.5 82.082)" fill="none" stroke="#636e7b" stroke-width="2"/>
    <line id="Line_5" data-name="Line 5" x1="14" y1="3" transform="translate(95.5 80.082)" fill="none" stroke="#636e7b" stroke-width="2"/>
    <line id="Line_6" data-name="Line 6" x1="14" y1="3" transform="translate(95.5 78.082)" fill="none" stroke="#636e7b" stroke-width="2"/>
    <line id="Line_7" data-name="Line 7" x1="14" y1="3" transform="translate(95.5 76.082)" fill="none" stroke="#636e7b" stroke-width="2"/>
    <line id="Line_8" data-name="Line 8" x1="12" y1="3" transform="translate(95.5 74.082)" fill="none" stroke="#636e7b" stroke-width="2"/>
    <line id="Line_11" data-name="Line 11" x1="13" y1="3" transform="translate(95.5 75.082)" fill="none" stroke="#636e7b" stroke-width="2"/>
    <line id="Line_9" data-name="Line 9" x1="12" y1="3" transform="translate(95.5 72.082)" fill="none" stroke="#636e7b" stroke-width="2"/>
    <line id="Line_10" data-name="Line 10" x1="10" y1="3" transform="translate(95.5 70.082)" fill="none" stroke="#636e7b" stroke-width="2"/>
  </g>
</svg>
