<svg xmlns="http://www.w3.org/2000/svg" width="50" height="31.667" viewBox="0 0 50 31.667">
  <g id="Fast_Charging" data-name="Fast Charging" transform="translate(-2 -13)" opacity="0.9">
    <path id="Path_681" data-name="Path 681" d="M7,34.667A3.333,3.333,0,0,0,7,28H5.333a3.333,3.333,0,0,0,0,6.667ZM3.667,31.333a1.667,1.667,0,0,1,1.667-1.667H7A1.667,1.667,0,0,1,7,33H5.333A1.667,1.667,0,0,1,3.667,31.333Z" transform="translate(0 -2.5)" fill="#636e7b"/>
    <path id="Path_682" data-name="Path 682" d="M36.833,13h-22.5a3.328,3.328,0,0,0-2.883,5H9.333a3.333,3.333,0,0,0,0,6.667H21.575c-.075.275-.142.55-.2.833H16a3.333,3.333,0,1,0,0,6.667h5.367c.067.283.133.558.208.833H9.333a3.333,3.333,0,0,0,0,6.667H11.45a3.329,3.329,0,0,0,2.883,5h22.5a15.833,15.833,0,0,0,0-31.667Zm0,30h-22.5a1.667,1.667,0,1,1,0-3.333.833.833,0,0,0,0-1.667h-5a1.667,1.667,0,1,1,0-3.333H22.567a.82.82,0,0,0,.642-.15.838.838,0,0,0,.283-.95,14.167,14.167,0,0,1-.617-2.425.819.819,0,0,0-.892-.667l-.142.025H16a1.667,1.667,0,1,1,0-3.333h5.633a.917.917,0,0,0,.342.108.84.84,0,0,0,.892-.7,14.351,14.351,0,0,1,.625-2.475.833.833,0,0,0-.858-1.1H9.333a1.667,1.667,0,1,1,0-3.333h5a.833.833,0,0,0,0-1.667,1.667,1.667,0,0,1,0-3.333h22.5a14.167,14.167,0,1,1,0,28.333Z" transform="translate(-0.667)" fill="#636e7b"/>
    <path id="Path_683" data-name="Path 683" d="M40.833,19A10.833,10.833,0,1,0,51.667,29.833,10.833,10.833,0,0,0,40.833,19Zm0,20A9.167,9.167,0,1,1,50,29.833,9.167,9.167,0,0,1,40.833,39Z" transform="translate(-4.667 -1)" fill="#636e7b"/>
    <path id="Path_684" data-name="Path 684" d="M46.2,29.216a.833.833,0,0,0-.7-.383H43v-5a.832.832,0,0,0-1.592-.342l-3.333,7.5a.833.833,0,0,0,.758,1.175h2.5v5a.833.833,0,0,0,.658.817,1.242,1.242,0,0,0,.175.017.833.833,0,0,0,.758-.492l3.333-7.5A.833.833,0,0,0,46.2,29.216ZM43,33.241V31.333a.833.833,0,0,0-.833-.833h-2.05l1.217-2.742v1.908a.833.833,0,0,0,.833.833h2.05Z" transform="translate(-6 -1.666)" fill="#636e7b"/>
  </g>
</svg>
