<svg xmlns="http://www.w3.org/2000/svg" width="55.973" height="91.732" viewBox="0 0 55.973 91.732">
  <g id="mobile" transform="translate(-27.298 -3.655)">
    <g id="Group_1690" data-name="Group 1690" transform="translate(27.298 3.655)">
      <g id="Group_1689" data-name="Group 1689" transform="translate(0 0)">
        <g id="Group_1685" data-name="Group 1685" transform="translate(0)">
          <path id="Path_13" data-name="Path 13" d="M180.983,124.215H138.526a6.517,6.517,0,0,1-6.758-6.245V38.728a6.517,6.517,0,0,1,6.758-6.245h42.456a6.517,6.517,0,0,1,6.758,6.245V117.97A6.517,6.517,0,0,1,180.983,124.215Z" transform="translate(-131.768 -32.483)" fill="none"/>
          <g id="Group_1683" data-name="Group 1683" transform="translate(1.127 19.349)">
            <path id="Path_20" data-name="Path 20" d="M145.1,131.132H132.864a1.071,1.071,0,0,1-1.1-1.041v-8.42a1.071,1.071,0,0,1,1.1-1.041H145.1a1.071,1.071,0,0,1,1.1,1.041v8.421A1.07,1.07,0,0,1,145.1,131.132Z" transform="translate(-131.766 -120.63)" fill="#636e7b"/>
            <path id="Path_21" data-name="Path 21" d="M327.834,131.132H315.6a1.071,1.071,0,0,1-1.1-1.041v-8.42a1.071,1.071,0,0,1,1.1-1.041h12.237a1.071,1.071,0,0,1,1.1,1.041v8.421A1.07,1.07,0,0,1,327.834,131.132Z" transform="translate(-279.226 -120.63)" fill="#636e7b"/>
            <path id="Path_685" data-name="Path 685" d="M328.87,131.132H315.683a1.119,1.119,0,0,1-1.183-1.041v-8.42a1.119,1.119,0,0,1,1.183-1.041H328.87a1.119,1.119,0,0,1,1.183,1.041v8.421A1.119,1.119,0,0,1,328.87,131.132Z" transform="translate(-297.347 -120.63)" fill="#636e7b"/>
          </g>
          <g id="Path_22" data-name="Path 22" transform="translate(-127.713 -28.514)" fill="none">
            <path d="M134.472,29.555a5.437,5.437,0,0,0-5.632,5.2V114a5.437,5.437,0,0,0,5.632,5.2h42.456a5.437,5.437,0,0,0,5.632-5.2V34.759a5.437,5.437,0,0,0-5.632-5.2Z" stroke="none"/>
            <path d="M 134.4715576171875 31.55471038818359 C 132.4689025878906 31.55471038818359 130.8396453857422 32.99202728271484 130.8396453857422 34.75872039794922 L 130.8396453857422 114.0010147094727 C 130.8396453857422 115.767707824707 132.4689025878906 117.2050247192383 134.4715576171875 117.2050247192383 L 176.9278564453125 117.2050247192383 C 178.9304809570312 117.2050247192383 180.5597534179688 115.767707824707 180.5597534179688 114.0010147094727 L 180.5597534179688 34.75872039794922 C 180.5597534179688 32.99202728271484 178.9304809570312 31.55471038818359 176.9278564453125 31.55471038818359 L 134.4715576171875 31.55471038818359 M 134.4715576171875 29.55471038818359 L 176.9278564453125 29.55471038818359 C 180.0332336425781 29.55471038818359 182.5597534179688 31.88921356201172 182.5597534179688 34.75872039794922 L 182.5597534179688 114.0010147094727 C 182.5597534179688 116.8705215454102 180.0332336425781 119.2050247192383 176.9278564453125 119.2050247192383 L 134.4715576171875 119.2050247192383 C 131.3661346435547 119.2050247192383 128.8396453857422 116.8705215454102 128.8396453857422 114.0010147094727 L 128.8396453857422 34.75872039794922 C 128.8396453857422 31.88921356201172 131.3661346435547 29.55471038818359 134.4715576171875 29.55471038818359 Z" stroke="none" fill="#636e7b"/>
          </g>
          <g id="Group_1684" data-name="Group 1684" transform="translate(22.922 5.616)">
            <path id="Path_23" data-name="Path 23" d="M242.52,51.853h-7.877a1.007,1.007,0,1,1,0-2h7.877a1.007,1.007,0,1,1,0,2Z" transform="translate(-233.517 -49.853)" fill="#636e7b"/>
          </g>
          <circle id="Ellipse_42" data-name="Ellipse 42" cx="1" cy="1" r="1" transform="translate(36.054 5.615)" fill="#636e7b"/>
        </g>
        <path id="Path_24" data-name="Path 24" d="M198.344,272.273H168.515a4.163,4.163,0,0,1-4.163-4.163V240.567a4.163,4.163,0,0,1,4.163-4.163h29.828a4.163,4.163,0,0,1,4.163,4.163V268.11A4.163,4.163,0,0,1,198.344,272.273Z" transform="translate(-155.569 -197.956)" fill="#636e7b"/>
        <g id="Group_1687" data-name="Group 1687" transform="translate(13.427 44.081)">
          <path id="Path_26" data-name="Path 26" d="M190.132,292.289H187.7a1.041,1.041,0,0,0,0,2.082h2.432a1.041,1.041,0,1,0,0-2.082Z" transform="translate(-186.66 -292.289)" fill="#2d333b"/>
          <path id="Path_27" data-name="Path 27" d="M214.487,312.561H187.7a1.041,1.041,0,0,0,0,2.082h26.786a1.041,1.041,0,1,0,0-2.082Z" transform="translate(-186.66 -308.341)" fill="#2d333b"/>
        </g>
        <g id="Group_1688" data-name="Group 1688" transform="translate(13.427 56.097)">
          <path id="Path_28" data-name="Path 28" d="M193.255,345.206H187.7a1.041,1.041,0,1,0,0,2.082h5.554a1.041,1.041,0,1,0,0-2.082Z" transform="translate(-186.66 -345.206)" fill="#2d333b"/>
          <path id="Path_29" data-name="Path 29" d="M214.487,365.478H187.7a1.041,1.041,0,1,0,0,2.082h26.786a1.041,1.041,0,1,0,0-2.082Z" transform="translate(-186.66 -361.258)" fill="#2d333b"/>
          <path id="Path_686" data-name="Path 686" d="M214.487,365.478H187.7a1.041,1.041,0,1,0,0,2.082h26.786a1.041,1.041,0,1,0,0-2.082Z" transform="translate(-186.66 -357.258)" fill="#2d333b"/>
          <path id="Path_687" data-name="Path 687" d="M214.487,365.478H187.7a1.041,1.041,0,1,0,0,2.082h26.786a1.041,1.041,0,1,0,0-2.082Z" transform="translate(-186.66 -353.258)" fill="#2d333b"/>
        </g>
        <path id="Path_31" data-name="Path 31" d="M332.309,93.874H328a1.041,1.041,0,0,0,0,2.082h4.3a1.041,1.041,0,1,0,0-2.082Z" transform="translate(-282.331 -79.095)" fill="#636e7b"/>
        <path id="Path_683" data-name="Path 683" d="M237.033,312.561H188.544c-1.04,0-1.884.45-1.884,1s.844,1,1.884,1h48.489c1.04,0,1.884-.45,1.884-1S238.074,312.561,237.033,312.561Z" transform="translate(-184.657 -232.145)" fill="#636e7b"/>
        <path id="Path_684" data-name="Path 684" d="M237.033,312.561H188.544c-1.04,0-1.884.45-1.884,1s.844,1,1.884,1h48.489c1.04,0,1.884-.45,1.884-1S238.074,312.561,237.033,312.561Z" transform="translate(-184.657 -302.145)" fill="#636e7b"/>
      </g>
    </g>
  </g>
</svg>
