<svg xmlns="http://www.w3.org/2000/svg" width="39.619" height="45.925" viewBox="0 0 39.619 45.925">
  <g id="notification" opacity="0.9">
    <path id="Path_707" data-name="Path 707" d="M38.273,10.753a.673.673,0,0,0,1.345,0A10.769,10.769,0,0,0,20.5,3.963a3.768,3.768,0,0,0-6.044,4.374A12.449,12.449,0,0,0,5.447,20.279a.673.673,0,1,0,1.345,0A11.1,11.1,0,0,1,15.721,9.416h0a11.23,11.23,0,0,1,2.162-.21c.1,0,.2,0,.307,0a10.752,10.752,0,0,0,10.658,12.3l.127,0v3.253a8.8,8.8,0,0,0,3.179,6.778l.809.674a3.546,3.546,0,0,1,1.282,2.732v.042a3.518,3.518,0,0,1-3.518,3.511H4.864a3.518,3.518,0,0,1-3.518-3.511,3.553,3.553,0,0,1,1.327-2.769l.83-.67a8.779,8.779,0,0,0,3.29-6.869V23.2a.673.673,0,0,0-1.345,0v1.475A7.441,7.441,0,0,1,2.659,30.5l-.83.67A4.9,4.9,0,0,0,0,34.983,4.866,4.866,0,0,0,4.864,39.84h7.042c0,.067,0,.133,0,.2a5.894,5.894,0,0,0,11.788,0c0-.066,0-.132,0-.2h7.043a4.865,4.865,0,0,0,4.863-4.857v-.042a4.887,4.887,0,0,0-1.767-3.766l-.809-.674a7.455,7.455,0,0,1-2.694-5.744V21.406a10.659,10.659,0,0,0,5.04-2.087,10.833,10.833,0,0,0,3.824-5.536.673.673,0,0,0-1.291-.379,9.479,9.479,0,0,1-3.347,4.843,9.4,9.4,0,1,1,3.725-7.493ZM22.345,40.039a4.549,4.549,0,0,1-9.1,0c0-.066,0-.133,0-.2H22.34c0,.066,0,.133,0,.2ZM17.884,7.861a12.624,12.624,0,0,0-2.034.166A2.423,2.423,0,0,1,19.7,5.086a10.7,10.7,0,0,0-1.229,2.789c-.194-.009-.391-.014-.588-.014Zm0,0" transform="translate(0)" fill="#636e7b"/>
    <path id="Path_708" data-name="Path 708" d="M300.16,73.311a.672.672,0,0,0,.673-.673V64.256a.672.672,0,0,0-1.125-.5l-1.443,1.314a.673.673,0,1,0,.906.995l.317-.289v6.86a.673.673,0,0,0,.673.673Zm0,0" transform="translate(-271.312 -57.88)" fill="#636e7b"/>
  </g>
</svg>
