<svg xmlns="http://www.w3.org/2000/svg" width="47.313" height="34.696" viewBox="0 0 47.313 34.696">
  <g id="resolution" opacity="0.9">
    <path id="Path_713" data-name="Path 713" d="M43.371,0H3.943A3.947,3.947,0,0,0,0,3.943V30.754A3.947,3.947,0,0,0,3.943,34.7H43.371a3.947,3.947,0,0,0,3.943-3.943V3.943A3.947,3.947,0,0,0,43.371,0Zm2.366,30.754a2.366,2.366,0,0,1-2.366,2.365H3.943a2.366,2.366,0,0,1-2.366-2.365V3.943A2.366,2.366,0,0,1,3.943,1.577H43.371a2.366,2.366,0,0,1,2.366,2.366Zm0,0" fill="#636e7b"/>
    <path id="Path_714" data-name="Path 714" d="M40.441,34.133H36.5a2.435,2.435,0,0,0-.477.048,2.365,2.365,0,0,0-1.483.993,2.342,2.342,0,0,0-.22.4,2.4,2.4,0,0,0-.137.441,2.362,2.362,0,0,0-.049.48v3.943a.789.789,0,1,0,1.577,0V36.5a.809.809,0,0,1,.017-.162.752.752,0,0,1,.045-.144.8.8,0,0,1,.075-.137.76.76,0,0,1,.1-.117.829.829,0,0,1,.115-.095.851.851,0,0,1,.135-.073.769.769,0,0,1,.142-.044.793.793,0,0,1,.162-.017h3.943a.789.789,0,1,0,0-1.577Zm0,0" transform="translate(-30.978 -30.979)" fill="#636e7b"/>
    <path id="Path_715" data-name="Path 715" d="M40.441,270.055H36.5a.786.786,0,0,1-.307-.061.807.807,0,0,1-.252-.171.807.807,0,0,1-.1-.117.819.819,0,0,1-.071-.134.732.732,0,0,1-.046-.148.747.747,0,0,1-.016-.158v-3.943a.789.789,0,0,0-1.577,0v3.943a2.37,2.37,0,0,0,.4,1.32,2.389,2.389,0,0,0,1.04.858,2.353,2.353,0,0,0,.923.188h3.943a.789.789,0,1,0,0-1.577Zm0,0" transform="translate(-30.978 -240.09)" fill="#636e7b"/>
    <path id="Path_716" data-name="Path 716" d="M407.375,264.535a.788.788,0,0,0-.788.788v3.943a.825.825,0,0,1-.017.158.742.742,0,0,1-.045.144.794.794,0,0,1-.075.138.76.76,0,0,1-.1.117.829.829,0,0,1-.115.095.8.8,0,0,1-.135.073.717.717,0,0,1-.142.044.768.768,0,0,1-.162.021h-3.943a.789.789,0,1,0,0,1.577H405.8a2.36,2.36,0,0,0,1.956-1.041,2.36,2.36,0,0,0,.22-.4,2.417,2.417,0,0,0,.138-.441,2.362,2.362,0,0,0,.053-.48v-3.943A.789.789,0,0,0,407.375,264.535Zm0,0" transform="translate(-364.004 -240.09)" fill="#636e7b"/>
    <path id="Path_717" data-name="Path 717" d="M407.978,35.577a2.364,2.364,0,0,0-2.18-1.444h-3.943a.789.789,0,1,0,0,1.577H405.8a.792.792,0,0,1,.307.062.766.766,0,0,1,.134.073.789.789,0,0,1,.118.1.764.764,0,0,1,.168.25.732.732,0,0,1,.046.151.777.777,0,0,1,.016.156v3.943a.789.789,0,1,0,1.577,0V36.5a2.313,2.313,0,0,0-.048-.473,2.38,2.38,0,0,0-.138-.449Zm0,0" transform="translate(-364.005 -30.979)" fill="#636e7b"/>
    <path id="Path_718" data-name="Path 718" d="M161.483,119.6h-1.577v-1.577a.789.789,0,1,0-1.577,0V119.6h-2.507l4.75-7.462a.789.789,0,0,0-1.331-.847l-5.52,8.674a.789.789,0,0,0,.666,1.212h3.943v3.154a.789.789,0,1,0,1.577,0v-3.154h1.577a.789.789,0,0,0,0-1.577Zm0,0" transform="translate(-139.403 -100.679)" fill="#636e7b"/>
    <path id="Path_719" data-name="Path 719" d="M280.72,111.165a.788.788,0,0,0-1.115,0l-4.962,4.962v-4.4a.789.789,0,0,0-1.577,0v12.617a.789.789,0,1,0,1.577,0v-4.4l4.962,4.962a.788.788,0,0,0,1.115-1.115l-5.751-5.751,5.751-5.751a.788.788,0,0,0,0-1.115Zm0,0" transform="translate(-247.832 -100.683)" fill="#636e7b"/>
  </g>
</svg>
