<svg xmlns="http://www.w3.org/2000/svg" width="34.128" height="43.827" viewBox="0 0 34.128 43.827">
  <g id="security" opacity="0.9">
    <path id="Path_709" data-name="Path 709" d="M33.749,8.874,17.277.1a.818.818,0,0,0-.78,0L.481,8.878A.82.82,0,0,0,.055,9.6V21.063A23.74,23.74,0,0,0,14.284,42.79l2.223.969a.819.819,0,0,0,.653,0l2.505-1.082A23.693,23.693,0,0,0,34.183,20.836V9.6a.82.82,0,0,0-.434-.724ZM32.543,20.836A22.057,22.057,0,0,1,19.023,41.169l-.005,0-2.182.942-1.9-.827A22.1,22.1,0,0,1,1.695,21.063V10.083L16.9,1.752l15.647,8.337Zm0,0" transform="translate(-0.055 0)" fill="#636e7b"/>
    <path id="Path_710" data-name="Path 710" d="M81.286,149.462a.82.82,0,0,0-1.247,1.065L84.37,155.6a.82.82,0,0,0,1.141.1L95.6,147.5a.82.82,0,0,0-1.035-1.272l-9.467,7.7Zm0,0" transform="translate(-70.494 -128.93)" fill="#636e7b"/>
  </g>
</svg>
