<svg xmlns="http://www.w3.org/2000/svg" width="123.805" height="99.922" viewBox="0 0 123.805 99.922">
  <g id="web" transform="translate(-1 -30.256)">
    <g id="Group_1718" data-name="Group 1718" transform="translate(0 29.35)">
      <g id="Group_1695" data-name="Group 1695" transform="translate(1 0.906)">
        <g id="Group_1692" data-name="Group 1692">
          <path id="Path_39" data-name="Path 39" d="M158.284,180.969H45.761a4.231,4.231,0,0,1-4.231-4.231V88.1a4.231,4.231,0,0,1,4.231-4.231H158.284a4.231,4.231,0,0,1,4.231,4.231v88.64A4.231,4.231,0,0,1,158.284,180.969Z" transform="translate(-40.119 -82.457)" fill="none"/>
          <path id="Path_42" data-name="Path 42" d="M212.08,289.42v38.111H170.9V289.42a1.411,1.411,0,0,1,1.41-1.41H210.67A1.411,1.411,0,0,1,212.08,289.42Z" transform="translate(-133 -229.02)" fill="#636e7b"/>
          <path id="Path_43" data-name="Path 43" d="M225.205,357.625l-10.349-10.349a1.41,1.41,0,0,0-1.994,0l-5.968,5.969-2.726-2.726a1.41,1.41,0,0,0-1.994,0l-7.143,7.143a1.41,1.41,0,1,0,1.994,1.994l6.146-6.146,6.124,6.123a1.41,1.41,0,1,0,1.994-1.994l-2.4-2.4,4.971-4.972,9.352,9.351a1.41,1.41,0,0,0,1.994-1.994Z" transform="translate(-150.028 -271.274)" fill="#2d333b"/>
          <path id="Path_44" data-name="Path 44" d="M162.515,111.193V88.1a4.231,4.231,0,0,0-4.231-4.231H45.761A4.231,4.231,0,0,0,41.53,88.1v23.1Z" transform="translate(-40.119 -82.457)" fill="none"/>
          <path id="Path_45" data-name="Path 45" d="M369.295,83.867H335.44v27.326h38.086V88.1A4.231,4.231,0,0,0,369.295,83.867Z" transform="translate(-251.131 -82.457)" fill="none"/>
          <path id="Path_46" data-name="Path 46" d="M162.515,103.417V88.1a4.231,4.231,0,0,0-4.231-4.231H45.761A4.231,4.231,0,0,0,41.53,88.1v15.319Z" transform="translate(-40.119 -82.457)" fill="none"/>
          <g id="Path_47" data-name="Path 47" transform="translate(-36.529 -78.867)" fill="none">
            <path d="M154.694,178.789H42.17a5.647,5.647,0,0,1-5.641-5.641V84.508a5.647,5.647,0,0,1,5.641-5.641H154.693a5.647,5.647,0,0,1,5.641,5.641v88.64A5.647,5.647,0,0,1,154.694,178.789ZM42.17,81.688a2.824,2.824,0,0,0-2.821,2.821v88.64a2.824,2.824,0,0,0,2.821,2.821H154.693a2.824,2.824,0,0,0,2.821-2.821V84.508a2.824,2.824,0,0,0-2.821-2.821Z" stroke="none"/>
            <path d="M 154.6936187744141 178.7894134521484 L 42.17013931274414 178.7894134521484 C 39.05963134765625 178.7894134521484 36.52902984619141 176.2588195800781 36.52902984619141 173.1483459472656 L 36.52902984619141 84.50812530517578 C 36.52902984619141 81.39762878417969 39.05963134765625 78.86705017089844 42.17013931274414 78.86705017089844 L 154.693359375 78.86705017089844 C 157.8038482666016 78.86705017089844 160.33447265625 81.39762878417969 160.33447265625 84.50812530517578 L 160.33447265625 173.1483459472656 C 160.3347320556641 176.2588195800781 157.8041076660156 178.7894134521484 154.6936187744141 178.7894134521484 Z M 42.17013931274414 81.68759918212891 C 40.61488342285156 81.68759918212891 39.34959411621094 82.95286560058594 39.34959411621094 84.50812530517578 L 39.34959411621094 173.1483459472656 C 39.34959411621094 174.70361328125 40.61488342285156 175.9689025878906 42.17013931274414 175.9689025878906 L 154.693359375 175.9689025878906 C 156.2485809326172 175.9689025878906 157.5138854980469 174.70361328125 157.5138854980469 173.1483459472656 L 157.5138854980469 84.50812530517578 C 157.5138854980469 82.95286560058594 156.2485809326172 81.68759918212891 154.693359375 81.68759918212891 L 42.17013931274414 81.68759918212891 Z" stroke="none" fill="#636e7b"/>
          </g>
          <line id="Line_1" data-name="Line 1" x2="119" transform="translate(2.5 21.826)" fill="none" stroke="#636e7b" stroke-width="2"/>
        </g>
        <g id="Group_1694" data-name="Group 1694" transform="translate(10.773 7.333)">
          <g id="Group_1693" data-name="Group 1693" transform="translate(0 1.41)">
            <g id="Path_681" data-name="Path 681" fill="none">
              <path d="M3.075,0A3.075,3.075,0,1,1,0,3.075,3.075,3.075,0,0,1,3.075,0Z" stroke="none"/>
              <path d="M 3.074679374694824 1.999999523162842 C 2.482099294662476 1.999999523162842 1.999999523162842 2.482099294662476 1.999999523162842 3.074679374694824 C 1.999999523162842 3.667259454727173 2.482099294662476 4.149359226226807 3.074679374694824 4.149359226226807 C 3.667259454727173 4.149359226226807 4.149359226226807 3.667259454727173 4.149359226226807 3.074679374694824 C 4.149359226226807 2.482099294662476 3.667259454727173 1.999999523162842 3.074679374694824 1.999999523162842 M 3.074679374694824 -4.76837158203125e-07 C 4.77277946472168 -4.76837158203125e-07 6.149359226226807 1.376579284667969 6.149359226226807 3.074679374694824 C 6.149359226226807 4.77277946472168 4.77277946472168 6.149359226226807 3.074679374694824 6.149359226226807 C 1.376579284667969 6.149359226226807 -4.76837158203125e-07 4.77277946472168 -4.76837158203125e-07 3.074679374694824 C -4.76837158203125e-07 1.376579284667969 1.376579284667969 -4.76837158203125e-07 3.074679374694824 -4.76837158203125e-07 Z" stroke="none" fill="#636e7b"/>
            </g>
            <g id="Path_679" data-name="Path 679" transform="translate(9.816)" fill="none">
              <path d="M3.075,0A3.075,3.075,0,1,1,0,3.075,3.075,3.075,0,0,1,3.075,0Z" stroke="none"/>
              <path d="M 3.074679374694824 1.999999523162842 C 2.482099294662476 1.999999523162842 1.999999523162842 2.482099294662476 1.999999523162842 3.074679374694824 C 1.999999523162842 3.667259454727173 2.482099294662476 4.149359226226807 3.074679374694824 4.149359226226807 C 3.667259454727173 4.149359226226807 4.149359226226807 3.667259454727173 4.149359226226807 3.074679374694824 C 4.149359226226807 2.482099294662476 3.667259454727173 1.999999523162842 3.074679374694824 1.999999523162842 M 3.074679374694824 -4.76837158203125e-07 C 4.77277946472168 -4.76837158203125e-07 6.149359226226807 1.376579284667969 6.149359226226807 3.074679374694824 C 6.149359226226807 4.77277946472168 4.77277946472168 6.149359226226807 3.074679374694824 6.149359226226807 C 1.376579284667969 6.149359226226807 -4.76837158203125e-07 4.77277946472168 -4.76837158203125e-07 3.074679374694824 C -4.76837158203125e-07 1.376579284667969 1.376579284667969 -4.76837158203125e-07 3.074679374694824 -4.76837158203125e-07 Z" stroke="none" fill="#636e7b"/>
            </g>
            <g id="Path_680" data-name="Path 680" transform="translate(19.631)" fill="none">
              <path d="M3.075,0A3.075,3.075,0,1,1,0,3.075,3.075,3.075,0,0,1,3.075,0Z" stroke="none"/>
              <path d="M 3.074679374694824 1.999999523162842 C 2.482099294662476 1.999999523162842 1.999999523162842 2.482099294662476 1.999999523162842 3.074679374694824 C 1.999999523162842 3.667259454727173 2.482099294662476 4.149359226226807 3.074679374694824 4.149359226226807 C 3.667259454727173 4.149359226226807 4.149359226226807 3.667259454727173 4.149359226226807 3.074679374694824 C 4.149359226226807 2.482099294662476 3.667259454727173 1.999999523162842 3.074679374694824 1.999999523162842 M 3.074679374694824 -4.76837158203125e-07 C 4.77277946472168 -4.76837158203125e-07 6.149359226226807 1.376579284667969 6.149359226226807 3.074679374694824 C 6.149359226226807 4.77277946472168 4.77277946472168 6.149359226226807 3.074679374694824 6.149359226226807 C 1.376579284667969 6.149359226226807 -4.76837158203125e-07 4.77277946472168 -4.76837158203125e-07 3.074679374694824 C -4.76837158203125e-07 1.376579284667969 1.376579284667969 -4.76837158203125e-07 3.074679374694824 -4.76837158203125e-07 Z" stroke="none" fill="#636e7b"/>
            </g>
          </g>
          <path id="Path_48" data-name="Path 48" d="M334.523,115.429h-38.4V108.52h38.4a1.41,1.41,0,0,1,1.41,1.41v4.089A1.411,1.411,0,0,1,334.523,115.429Z" transform="translate(-233.673 -107.49)" fill="#636e7d"/>
          <g id="Path_49" data-name="Path 49" transform="translate(-217.543 -104.867)" fill="none">
            <path d="M280.178,105.985a3.824,3.824,0,1,0-1.19,6.212l1.226,1.226a1.41,1.41,0,0,0,1.994-1.994l-1.226-1.226A3.827,3.827,0,0,0,280.178,105.985Zm-3.413,1.994a1,1,0,1,1,0,1.419A1,1,0,0,1,276.764,107.979Z" stroke="none"/>
            <path d="M 277.4736328125 104.8665084838867 C 278.4528503417969 104.8665084838867 279.4320983886719 105.2392425537109 280.1776123046875 105.9847106933594 C 281.3162231445312 107.1233673095703 281.5821533203125 108.8061218261719 280.9816589355469 110.2025680541992 L 282.2081298828125 111.4289321899414 C 282.7586669921875 111.9795074462891 282.7586669921875 112.8727645874023 282.2081298828125 113.42333984375 C 281.657470703125 113.9739227294922 280.7642517089844 113.9739227294922 280.2136535644531 113.42333984375 L 278.9872436523438 112.1969604492188 C 277.5911560058594 112.7971496582031 275.9084167480469 112.5312194824219 274.7697143554688 111.3925399780273 C 273.27880859375 109.9016036987305 273.27880859375 107.4756546020508 274.7697143554688 105.9847106933594 C 275.5151977539062 105.2392425537109 276.4944152832031 104.8665084838867 277.4736328125 104.8665084838867 Z M 277.4736328125 109.6915435791016 C 277.7305908203125 109.6915435791016 277.987548828125 109.5937423706055 278.1831665039062 109.3981323242188 C 278.5743408203125 109.0069274902344 278.5743408203125 108.3703308105469 278.1831665039062 107.9791107177734 C 277.7919311523438 107.5879287719727 277.1553649902344 107.5878829956055 276.7641296386719 107.9791107177734 C 276.3729858398438 108.3703308105469 276.3729858398438 109.0069274902344 276.7641296386719 109.3981323242188 C 276.9597473144531 109.5937423706055 277.2167053222656 109.6915435791016 277.4736328125 109.6915435791016 Z" stroke="none" fill="#636e7b"/>
          </g>
        </g>
      </g>
      <g id="Group_1699" data-name="Group 1699" transform="translate(37.901 35.079)">
        <path id="Path_50" data-name="Path 50" d="M181.427,215.173h-9.114a1.41,1.41,0,0,1-1.41-1.41v-9.114a1.41,1.41,0,0,1,1.41-1.41h9.114a1.41,1.41,0,0,1,1.41,1.41v9.114A1.41,1.41,0,0,1,181.427,215.173Z" transform="translate(-170.903 -203.238)" fill="#636e7b"/>
        <g id="Group_1698" data-name="Group 1698" transform="translate(0 2.821)">
          <path id="Path_51" data-name="Path 51" d="M248.595,213.238H225.133a1.41,1.41,0,1,0,0,2.821h23.462a1.41,1.41,0,1,0,0-2.821Z" transform="translate(-208.825 -213.238)" fill="#636e7b"/>
          <g id="Group_1696" data-name="Group 1696" transform="translate(14.898 5.779)">
            <path id="Path_52" data-name="Path 52" d="M248.594,233.726h-23.46a1.41,1.41,0,1,0,0,2.821h23.46a1.41,1.41,0,1,0,0-2.821Z" transform="translate(-223.723 -233.726)" fill="#636e7b"/>
          </g>
          <g id="Group_1697" data-name="Group 1697" transform="translate(0 11.557)">
            <path id="Path_53" data-name="Path 53" d="M210.672,254.213H172.313a1.41,1.41,0,0,0,0,2.821h38.359a1.41,1.41,0,0,0,0-2.821Z" transform="translate(-170.903 -254.213)" fill="#636e7b"/>
          </g>
        </g>
      </g>
      <g id="Group_1700" data-name="Group 1700" transform="translate(89.091 33.865)">
        <path id="Path_54" data-name="Path 54" d="M403.909,208.238H391.447a1.41,1.41,0,0,0,0,2.821h12.462a1.41,1.41,0,0,0,0-2.821Z" transform="translate(-379.419 -205.614)" fill="#636e7b"/>
        <circle id="Ellipse_47" data-name="Ellipse 47" cx="4.035" cy="4.035" r="4.035" fill="#636e7b"/>
      </g>
      <g id="Group_1701" data-name="Group 1701" transform="translate(89.091 46.833)">
        <path id="Path_55" data-name="Path 55" d="M403.909,254.213H391.447a1.41,1.41,0,0,0,0,2.821h12.462a1.41,1.41,0,0,0,0-2.821Z" transform="translate(-379.419 -251.589)" fill="#636e7b"/>
        <circle id="Ellipse_48" data-name="Ellipse 48" cx="4.035" cy="4.035" r="4.035" fill="#636e7b"/>
      </g>
      <g id="Group_1702" data-name="Group 1702" transform="translate(89.091 59.8)">
        <path id="Path_56" data-name="Path 56" d="M403.909,300.189H391.447a1.41,1.41,0,0,0,0,2.821h12.462a1.41,1.41,0,0,0,0-2.821Z" transform="translate(-379.419 -297.564)" fill="#636e7b"/>
        <circle id="Ellipse_49" data-name="Ellipse 49" cx="4.035" cy="4.035" r="4.035" fill="#636e7b"/>
      </g>
      <g id="Group_1703" data-name="Group 1703" transform="translate(89.091 72.768)">
        <path id="Path_57" data-name="Path 57" d="M403.909,346.164H391.447a1.41,1.41,0,0,0,0,2.821h12.462a1.41,1.41,0,0,0,0-2.821Z" transform="translate(-379.419 -343.539)" fill="#636e7b"/>
        <circle id="Ellipse_50" data-name="Ellipse 50" cx="4.035" cy="4.035" r="4.035" fill="#636e7b"/>
      </g>
      <g id="Group_1704" data-name="Group 1704" transform="translate(89.091 85.736)">
        <path id="Path_58" data-name="Path 58" d="M403.909,392.14H391.447a1.41,1.41,0,0,0,0,2.821h12.462a1.41,1.41,0,0,0,0-2.821Z" transform="translate(-379.419 -389.515)" fill="#636e7b"/>
        <path id="Path_682" data-name="Path 682" d="M4.035,0A4.035,4.035,0,1,1,0,4.035,4.035,4.035,0,0,1,4.035,0Z" fill="#636e7b"/>
      </g>
      <g id="Group_1705" data-name="Group 1705" transform="translate(74.231 61.168)">
        <circle id="Ellipse_52" data-name="Ellipse 52" cx="1.411" cy="1.411" r="1.411" fill="#2d333b"/>
      </g>
      <g id="Group_1708" data-name="Group 1708" transform="translate(8.088 37.831)">
        <g id="Group_1706" data-name="Group 1706">
          <path id="Path_59" data-name="Path 59" d="M80.063,215.815H66.614a1.41,1.41,0,0,1,0-2.821H80.063a1.41,1.41,0,0,1,0,2.821Z" transform="translate(-65.204 -212.994)" fill="#636e7b"/>
        </g>
        <g id="Group_1707" data-name="Group 1707" transform="translate(0 5.387)">
          <path id="Path_60" data-name="Path 60" d="M80.063,234.913H66.614a1.41,1.41,0,0,1,0-2.821H80.063a1.41,1.41,0,0,1,0,2.821Z" transform="translate(-65.204 -232.092)" fill="#636e7b"/>
        </g>
      </g>
      <g id="Group_1711" data-name="Group 1711" transform="translate(8.088 52.963)">
        <g id="Group_1709" data-name="Group 1709">
          <path id="Path_61" data-name="Path 61" d="M80.063,269.462H66.614a1.41,1.41,0,1,1,0-2.82H80.063a1.41,1.41,0,1,1,0,2.82Z" transform="translate(-65.204 -266.641)" fill="#636e7b"/>
        </g>
        <g id="Group_1710" data-name="Group 1710" transform="translate(0 5.387)">
          <path id="Path_62" data-name="Path 62" d="M80.063,288.56H66.614a1.41,1.41,0,1,1,0-2.82H80.063a1.41,1.41,0,1,1,0,2.82Z" transform="translate(-65.204 -285.739)" fill="#636e7b"/>
        </g>
      </g>
      <g id="Group_1714" data-name="Group 1714" transform="translate(8.088 68.094)">
        <g id="Group_1712" data-name="Group 1712">
          <path id="Path_63" data-name="Path 63" d="M80.063,323.108H66.614a1.41,1.41,0,1,1,0-2.82H80.063a1.41,1.41,0,1,1,0,2.82Z" transform="translate(-65.204 -320.287)" fill="#636e7b"/>
        </g>
        <g id="Group_1713" data-name="Group 1713" transform="translate(0 5.387)">
          <path id="Path_64" data-name="Path 64" d="M80.063,342.206H66.614a1.41,1.41,0,1,1,0-2.821H80.063a1.41,1.41,0,1,1,0,2.821Z" transform="translate(-65.204 -339.385)" fill="#636e7b"/>
        </g>
      </g>
      <g id="Group_1717" data-name="Group 1717" transform="translate(8.088 83.225)">
        <g id="Group_1715" data-name="Group 1715">
          <path id="Path_65" data-name="Path 65" d="M80.063,376.755H66.614a1.41,1.41,0,1,1,0-2.821H80.063a1.41,1.41,0,1,1,0,2.821Z" transform="translate(-65.204 -373.934)" fill="#636e7b"/>
        </g>
        <g id="Group_1716" data-name="Group 1716" transform="translate(0 5.386)">
          <path id="Path_66" data-name="Path 66" d="M80.063,395.852H66.614a1.41,1.41,0,0,1,0-2.821H80.063a1.41,1.41,0,0,1,0,2.821Z" transform="translate(-65.204 -393.031)" fill="#636e7b"/>
        </g>
      </g>
    </g>
  </g>
</svg>
