<svg id="Notifications" xmlns="http://www.w3.org/2000/svg" xmlns:xlink="http://www.w3.org/1999/xlink" width="570" height="451.191" viewBox="0 0 570 451.191">
  <defs>
    <linearGradient id="linear-gradient" x1="0.5" x2="0.5" y2="1" gradientUnits="objectBoundingBox">
      <stop offset="0" stop-color="#636e7b"/>
      <stop offset="1" stop-color="#b5c4d6"/>
    </linearGradient>
  </defs>
  <path id="Path_755" data-name="Path 755" d="M744.646,583.149l46.262-252.575a29.271,29.271,0,0,0-5.2-19.131L679.669,146a28.12,28.12,0,0,0-11.039-9.291,27.31,27.31,0,0,0-14.069-2.483L326.834,152.16c-5.748.519-46.708,9.807-51.114,13.631s-11.658,33.85-13.106,39.58L221.9,380.037a29.4,29.4,0,0,0,.087,14.762L275.6,583.815Z" transform="translate(-221 -134.115)" opacity="0.1" fill="url(#linear-gradient)"/>
  <path id="Path_756" data-name="Path 756" d="M936.992,799h133.287v78.68H936.992Z" transform="translate(-853.762 -470.749)" fill="#dadddf"/>
  <path id="Path_757" data-name="Path 757" d="M943.172,878.221h127.062V807.39H943.172Zm126.232-1.061h-125.4V808.451h125.4Z" transform="translate(-856.767 -474.997)" fill="#b2b6bb"/>
  <path id="Path_758" data-name="Path 758" d="M1206.97,799h32.559v78.68H1206.97Z" transform="translate(-1156.299 -470.749)" fill="#dadddf"/>
  <g id="Group_245" data-name="Group 245" transform="translate(50.671 328.251)" opacity="0.2">
    <path id="Path_759" data-name="Path 759" d="M1206.97,799h32.559v78.68H1206.97Z" transform="translate(-1206.97 -799)" opacity="0.2"/>
  </g>
  <path id="Path_760" data-name="Path 760" d="M1070.072,853.3H943.835c-.217,0-.217-1.195,0-1.195h126.237C1070.289,852.11,1070.289,853.3,1070.072,853.3Z" transform="translate(-857.015 -497.639)" fill="#b2b6bb"/>
  <path id="Path_761" data-name="Path 761" d="M1079.19,808.28v22.532c0,.271,1.032.271,1.032,0V808.339Z" transform="translate(-933.907 -475.448)" fill="#b2b6bb"/>
  <path id="Path_762" data-name="Path 762" d="M1070.072,902.1H943.835c-.217,0-.217-1.19,0-1.19h126.237C1070.289,900.91,1070.289,902.1,1070.072,902.1Z" transform="translate(-857.015 -522.347)" fill="#b2b6bb"/>
  <path id="Path_763" data-name="Path 763" d="M1137.33,827.452a1.926,1.926,0,1,0,1.906-2.2A2.068,2.068,0,0,0,1137.33,827.452Z" transform="translate(-1023.53 -484.04)" fill="#b2b6bb"/>
  <path id="Path_764" data-name="Path 764" d="M1007.2,827.452a1.926,1.926,0,1,0,1.906-2.2A2.071,2.071,0,0,0,1007.2,827.452Z" transform="translate(-829.155 -484.04)" fill="#b2b6bb"/>
  <path id="Path_765" data-name="Path 765" d="M1077.41,876.862a1.926,1.926,0,1,0,1.906-2.2A2.068,2.068,0,0,0,1077.41,876.862Z" transform="translate(-934.028 -509.056)" fill="#b2b6bb"/>
  <path id="Path_766" data-name="Path 766" d="M957.74,958.37l7.6,42.759h-4.275L947.047,958.37Z" transform="translate(-753.79 -551.439)" fill="#dadddf"/>
  <path id="Path_767" data-name="Path 767" d="M1020.583,958.37l7.6,42.759h-4.275L1009.89,958.37Z" transform="translate(-847.658 -551.439)" fill="#dadddf"/>
  <path id="Path_768" data-name="Path 768" d="M1168.749,958.37l-6.359,42.833h4.276l12.777-42.833Z" transform="translate(-1074.203 -551.439)" fill="#dadddf"/>
  <path id="Path_769" data-name="Path 769" d="M1239.783,958.37l-7.2,42.833h4.275l13.621-42.833Z" transform="translate(-1179.89 -551.439)" fill="#dadddf"/>
  <path id="Path_770" data-name="Path 770" d="M1077.15,921.972a1.926,1.926,0,1,0,1.906-2.2A2.072,2.072,0,0,0,1077.15,921.972Z" transform="translate(-933.639 -531.896)" fill="#b2b6bb"/>
  <path id="Path_771" data-name="Path 771" d="M964.107,965.92,959.98,967.1l7.973,34.07-1.871.01L951.844,958.46h10.679Z" transform="translate(-758.768 -551.484)" opacity="0.2"/>
  <path id="Path_772" data-name="Path 772" d="M1028.749,976.119l-3.6,2.686,5.791,22.369-1.723.01L1014.98,958.46h10.679Z" transform="translate(-852.926 -551.484)" opacity="0.2"/>
  <path id="Path_773" data-name="Path 773" d="M1245.482,974.579l-5.115,1.175-5.84,25.494-1.787-.064,7.119-42.724h10.684Z" transform="translate(-1180.035 -551.484)" opacity="0.2"/>
  <path id="Path_774" data-name="Path 774" d="M1177.535,965.421l-6.2,1.175-7.06,34.652-1.59-.064,6.1-42.724h10.684Z" transform="translate(-1074.384 -551.484)" opacity="0.2"/>
  <path id="Path_775" data-name="Path 775" d="M788.7,251.156a16.226,16.226,0,0,1-28.407-4.888,11.583,11.583,0,0,1-3.693-1.787,11.282,11.282,0,0,0,3.387-.291,5.675,5.675,0,0,1-3.456-2.093,11.352,11.352,0,0,0,3.875.044,5.712,5.712,0,0,1,10.925,1.521,16.171,16.171,0,0,0,8.98-9.662,5.717,5.717,0,0,1,.987,7.761,5.7,5.7,0,0,0,2.177-1.565,5.712,5.712,0,0,1-2.335,6.912,5.751,5.751,0,0,0,2.468-.8,5.708,5.708,0,0,1-3.634,5.559,11.432,11.432,0,0,0,8.724-.711Z" transform="translate(-483.09 -184.687)" fill="#b2b6bb"/>
  <path id="Path_776" data-name="Path 776" d="M1108.66,638.275l2.745-3.155v-7.563a7.409,7.409,0,0,1,6.275-7.3V617.09h1.975v3.13a7.405,7.405,0,0,1,6.527,7.341v7.193l2.76,3.52h-7.534a3.114,3.114,0,0,1-3.693,1.92,3.15,3.15,0,0,1-1.328-.715,3.2,3.2,0,0,1-.8-1.2Z" transform="translate(-997.175 -378.647)" fill="#b2b6bb"/>
  <path id="Path_777" data-name="Path 777" d="M413,354.6l3.15-3.619v-8.669a8.482,8.482,0,0,1,7.2-8.393V330.28h2.286v3.594a8.481,8.481,0,0,1,7.494,8.427v8.25l3.165,4.058h-8.64a3.575,3.575,0,0,1-5.761,1.377,3.526,3.526,0,0,1-.918-1.377Z" transform="translate(38.918 -233.434)" fill="#b2b6bb"/>
  <path id="Path_778" data-name="Path 778" d="M936.9,660.05l30.007.158a2.76,2.76,0,0,1,2.74,2.779l-.114,21.812a2.76,2.76,0,0,1-2.775,2.745l-10.925-.054c-1.111,1.53-2.9,3.95-3.88,5.312a.761.761,0,0,1-1.274-.069l-3.031-5.287-10.9-.059a2.758,2.758,0,0,1-1.95-.817,2.839,2.839,0,0,1-.592-.9,2.684,2.684,0,0,1-.2-1.058l.119-21.812a2.732,2.732,0,0,1,.82-1.954,2.739,2.739,0,0,1,1.96-.8Z" transform="translate(-751.65 -400.398)" fill="#e6b45a"/>
  <path id="Path_779" data-name="Path 779" d="M968.008,687.019a4.06,4.06,0,0,0,.958,3.105,3.708,3.708,0,0,1-3.278-2.908s-7.1.849-7.944-3.949c-.9-5.055,4.3-6.512,6.507-6.507,3.871,0,7.05,2.108,7.223,5.737S968.008,687.019,968.008,687.019Z" transform="translate(-765.157 -408.859)" fill="#fff"/>
  <path id="Path_780" data-name="Path 780" d="M899.569,308.1h33.226a3.056,3.056,0,0,1,3.056,3.056V335.3a3.06,3.06,0,0,1-3.056,3.061H920.7c-1.224,1.7-3.189,4.443-4.266,5.924a.844.844,0,0,1-1.412-.069l-3.387-5.836H899.569a3.066,3.066,0,0,1-3.061-3.061V311.156a3.062,3.062,0,0,1,3.061-3.056Z" transform="translate(-699.346 -222.204)" fill="#e6b45a"/>
  <path id="Path_781" data-name="Path 781" d="M934.934,339.17h-2.523v-6.3h-1.762l-.188-2.113h1.975v-1.2c0-.494-.1-.7-.583-.7h-1.368v-2.2h1.748c1.876,0,2.725.829,2.725,2.409v1.708h1.308v2.138h-1.308Z" transform="translate(-716.525 -231.601)" fill="#fff"/>
  <path id="Path_782" data-name="Path 782" d="M553.331,287.8h43.885a4.033,4.033,0,0,1,4.033,4.048v31.893a4.034,4.034,0,0,1-4.033,4.038H581.239c-1.614,2.251-4.211,5.836-5.633,7.8a1.111,1.111,0,0,1-1.861-.094l-4.478-7.707H553.331a4.034,4.034,0,0,1-4.033-4.038V291.848a4.034,4.034,0,0,1,4.033-4.048Z" transform="translate(-193.328 -211.926)" fill="#e6b45a"/>
  <path id="Path_783" data-name="Path 783" d="M581.644,317.261a9.839,9.839,0,0,1,19.659-.178v.43a9.666,9.666,0,0,1-1.407,5.041l1.772,5.238-5.431-1.733a9.845,9.845,0,0,1-14.589-8.546A1.339,1.339,0,0,1,581.644,317.261Zm9.834,8.457a8.21,8.21,0,0,0,4.547-1.358l3.179,1.012-1.032-3.046a8.116,8.116,0,0,0,1.575-4.814,5.319,5.319,0,0,0-.04-.795,8.274,8.274,0,0,0-16.475.153c0,.212-.03.425-.03.642a8.25,8.25,0,0,0,8.274,8.225Z" transform="translate(-209.716 -222.034)" fill="#fff" fill-rule="evenodd"/>
  <path id="Path_784" data-name="Path 784" d="M593.109,324.943c.247-.118,1.432-.7,1.649-.775s.385-.123.543.118.627.775.765.933.281.183.528.059a6.456,6.456,0,0,0,1.935-1.185,7.223,7.223,0,0,0,1.343-1.654c.138-.242,0-.37-.109-.494s-.237-.281-.36-.42l-.089-.114a3.013,3.013,0,0,1-.153-.286.429.429,0,0,1,0-.42c.059-.118.543-1.3.745-1.777s.4-.395.543-.395.3-.025.459-.025a.9.9,0,0,1,.647.3,2.693,2.693,0,0,1,.844,2,3.291,3.291,0,0,1-.123.82,5.445,5.445,0,0,1-.864,1.654A9.893,9.893,0,0,1,597.3,326.9c-2.449.963-2.468.632-2.9.592a2.448,2.448,0,0,1-1.624-1.135,1.972,1.972,0,0,1-.143-1.14A1.867,1.867,0,0,1,593.109,324.943Z" transform="translate(-215.859 -227.475)" fill="#fff" fill-rule="evenodd"/>
  <path id="Path_785" data-name="Path 785" d="M383.657,495.75h33.606a3.091,3.091,0,0,1,3.091,3.091v24.428a3.09,3.09,0,0,1-3.091,3.091H405.03c-1.239,1.723-3.223,4.473-4.314,5.974a.849.849,0,0,1-1.427-.069l-3.431-5.924h-12.2a3.1,3.1,0,0,1-3.1-3.091V498.836a3.1,3.1,0,0,1,3.1-3.086Z" transform="translate(70.87 -317.212)" fill="#e6b45a"/>
  <path id="Path_786" data-name="Path 786" d="M413.051,513.442c-2.034,0-2.271,0-3.076.044a4.234,4.234,0,0,0-1.412.262,2.525,2.525,0,0,0-1.447,1.447,4.241,4.241,0,0,0-.262,1.412c-.039.8-.044,1.047-.044,3.081s0,2.271.044,3.076a4.244,4.244,0,0,0,.262,1.412,2.525,2.525,0,0,0,1.447,1.447,4.249,4.249,0,0,0,1.412.262c.8.034,1.042.044,3.076.044s2.275,0,3.075-.044a4.273,4.273,0,0,0,1.417-.262,2.539,2.539,0,0,0,1.442-1.447,4.118,4.118,0,0,0,.262-1.412c.04-.8.044-1.047.044-3.076s0-2.276-.044-3.081a4.118,4.118,0,0,0-.262-1.412,2.538,2.538,0,0,0-1.442-1.447,4.27,4.27,0,0,0-1.417-.262C415.326,513.452,415.085,513.442,413.051,513.442Zm0-1.372c2.069,0,2.325,0,3.14.049a5.537,5.537,0,0,1,1.846.351,3.762,3.762,0,0,1,1.348.879,3.721,3.721,0,0,1,.879,1.348,5.6,5.6,0,0,1,.355,1.851c.035.81.044,1.071.044,3.14s0,2.325-.044,3.135a5.545,5.545,0,0,1-.355,1.851,3.905,3.905,0,0,1-2.227,2.227,5.535,5.535,0,0,1-1.846.351c-.815.039-1.071.049-3.14.049s-2.325,0-3.14-.049a5.536,5.536,0,0,1-1.846-.351,3.785,3.785,0,0,1-1.348-.879,3.714,3.714,0,0,1-.878-1.348,5.665,5.665,0,0,1-.356-1.851c-.035-.81-.044-1.071-.044-3.135s0-2.33.044-3.14a5.717,5.717,0,0,1,.356-1.851,3.714,3.714,0,0,1,.878-1.348,3.848,3.848,0,0,1,1.348-.879,5.537,5.537,0,0,1,1.846-.351C410.725,512.08,410.982,512.07,413.051,512.07Z" transform="translate(58.281 -325.475)" fill="#fff"/>
  <path id="Path_787" data-name="Path 787" d="M416.848,519.58a3.91,3.91,0,1,1-2.765,1.145,3.912,3.912,0,0,1,2.765-1.145Zm0,6.448a2.537,2.537,0,1,0-1.795-.743A2.537,2.537,0,0,0,416.848,526.028Z" transform="translate(54.484 -329.278)" fill="#fff"/>
  <path id="Path_788" data-name="Path 788" d="M427.242,518.323a.914.914,0,1,0,.268-.646.91.91,0,0,0-.268.646" transform="translate(39.11 -328.179)" fill="#fff"/>
  <path id="Path_789" data-name="Path 789" d="M537.523,661.52h42.3a3.89,3.89,0,0,1,3.89,3.89v30.747a3.89,3.89,0,0,1-3.89,3.89h-15.4c-1.555,2.167-4.053,5.628-5.431,7.519a1.071,1.071,0,0,1-1.8-.089l-4.315-7.43H537.523a3.89,3.89,0,0,1-3.89-3.89V665.41a3.89,3.89,0,0,1,3.89-3.89Z" transform="translate(-168.064 -401.142)" fill="#e6b45a"/>
  <path id="Path_790" data-name="Path 790" d="M578.339,683.413a8.216,8.216,0,0,0-2.019-.879l-.42-1.975-3.382-.059-.494,1.975a8.106,8.106,0,0,0-2.054.8l-1.708-1.121-2.434,2.35,1.061,1.748a8.218,8.218,0,0,0-.879,2.019l-2,.42-.059,3.382,1.975.494a8.393,8.393,0,0,0,.8,2.054l-1.121,1.708,2.35,2.434,1.748-1.061a8.216,8.216,0,0,0,2.019.879l.42,1.975,3.382.059.494-1.975a8.3,8.3,0,0,0,2.054-.8l1.708,1.121,2.434-2.35-1.062-1.748a8.257,8.257,0,0,0,.879-2.024l2-.415.059-3.382-1.975-.494a8.3,8.3,0,0,0-.8-2.054l1.121-1.708-2.35-2.434Zm-1.8,4.5a3.629,3.629,0,1,1-2.547-1.106,3.628,3.628,0,0,1,2.547,1.106Z" transform="translate(-183.41 -410.752)" fill="#fff"/>
  <path id="Path_791" data-name="Path 791" d="M583.355,694.317a2.685,2.685,0,0,0-.676-.592,3.6,3.6,0,0,0-2.365-.558,3.682,3.682,0,0,0-1.609.568,3.726,3.726,0,0,0-1.3,1.481,3.352,3.352,0,0,0-.331,1.022,3.52,3.52,0,0,0,0,1.116,3.7,3.7,0,0,0,3.061,3.169,3.386,3.386,0,0,0,1.116,0,3.6,3.6,0,0,0,1.032-.291,3.791,3.791,0,0,0,1.511-1.249,3.712,3.712,0,0,0,.627-1.59,3.605,3.605,0,0,0-.494-2.385,2.652,2.652,0,0,0-.568-.7,4.182,4.182,0,0,1,.494.736,3.63,3.63,0,0,1,.4,2.325,3.55,3.55,0,0,1-2.069,2.681,3.241,3.241,0,0,1-.987.272,3.3,3.3,0,0,1-1.057,0,3.531,3.531,0,0,1-2.9-3,3.48,3.48,0,0,1,0-1.057,3.361,3.361,0,0,1,.306-.987A3.568,3.568,0,0,1,580.3,693.3a3.642,3.642,0,0,1,2.31.494A7.371,7.371,0,0,1,583.355,694.317Z" transform="translate(-190.229 -417.154)" fill="#fff"/>
  <path id="Path_792" data-name="Path 792" d="M578.273,683.312l.114-.059.336-.193,1.333-.78h-.039l2.335,2.469v-.064c-.341.494-.721,1.091-1.13,1.7v.064a8.358,8.358,0,0,1,.795,2.039v.039h.04l1.975.494-.059-.074q-.03,1.6-.064,3.382l.064-.079-1.975.41h-.054v.049a8.252,8.252,0,0,1-.869,2l-.03.044.03.044,1.057,1.753v-.118l-2.439,2.345h.123l-1.708-1.121-.049-.034-.054.03a8.062,8.062,0,0,1-2.029.795h-.059v.059c-.148.622-.316,1.3-.494,1.975l.1-.074-3.382-.064.1.084c-.128-.632-.272-1.313-.415-2v-.064h-.059a8.112,8.112,0,0,1-1.975-.869h0l-.054-.035-.054.035-1.748,1.057h.128l-2.35-2.434v.128l1.116-1.708.035-.054-.03-.049a8.172,8.172,0,0,1-.795-2.029v-.059h-.059L564,691.852l.079.1c0-1.155.034-2.281.054-3.382l-.074.094,2-.42h.054v-.054a8.151,8.151,0,0,1,.869-1.975v-.094l-1.066-1.743v.109l2.345-2.36h-.1l1.713,1.116h.079a8.3,8.3,0,0,1,2.029-.8h.04V682.4c.178-.721.331-1.372.494-1.975l-.059.049,3.382.044-.044-.039c.173.8.311,1.456.43,1.975a8.546,8.546,0,0,1,1.545.6l.365.188.118.064-.114-.079c-.074-.044-.193-.118-.355-.2a7.891,7.891,0,0,0-1.545-.632l.025.025c-.109-.543-.242-1.2-.4-2v-.039h-.039l-3.377-.074h-.049v.049c-.153.612-.311,1.259-.494,1.975l.049-.049a8.44,8.44,0,0,0-2.069.81h.079l-1.708-1.121-.054-.035-.044.044-2.439,2.34-.049.049.035.059,1.057,1.748v-.094a8.5,8.5,0,0,0-.889,2.044l.069-.064-1.975.415h-.074v.074q-.03,1.654-.059,3.382v.079h.079l1.975.494-.074-.074a8.579,8.579,0,0,0,.815,2.078v-.109L565.5,696.1l-.044.069.054.059,2.35,2.434.059.059.069-.044,1.748-1.056h-.109a8.337,8.337,0,0,0,2.049.889l-.074-.079c.143.686.286,1.368.415,1.975v.084h.079l3.382.059h.084v-.079c.168-.686.331-1.363.494-1.975l-.074.074a8.522,8.522,0,0,0,2.074-.819h-.1l1.718,1.16.064.044.054-.054,2.434-2.355.049-.049-.035-.064-1.061-1.743v.089a8.528,8.528,0,0,0,.884-2.044L582,692.8l1.975-.42h.064v-.069c0-1.185.035-2.315.049-3.382v-.059h-.059l-1.975-.494.049.049a8.491,8.491,0,0,0-.82-2.064v.064l1.116-1.713v-.035l-.03-.03-2.36-2.419h-.025l-1.284.8-.331.207Z" transform="translate(-183.342 -410.651)" fill="#fff"/>
  <path id="Path_793" data-name="Path 793" d="M1036.028,456.18h39.387a4.84,4.84,0,0,1,4.843,4.843v28.062a4.84,4.84,0,0,1-4.843,4.843H1061.36c-1.526,2.128-3.95,5.515-5.322,7.366a1.018,1.018,0,0,1-.4.333,1.045,1.045,0,0,1-.509.1,1.047,1.047,0,0,1-.854-.524l-4.231-7.277h-14.016a4.849,4.849,0,0,1-4.843-4.843V461.028a4.871,4.871,0,0,1,1.417-3.426,4.843,4.843,0,0,1,3.421-1.422Z" transform="translate(-910.246 -297.178)" fill="#e6b45a"/>
  <path id="Path_794" data-name="Path 794" d="M936.9,660.05l30.007.158a2.76,2.76,0,0,1,2.74,2.779l-.114,21.812a2.76,2.76,0,0,1-2.775,2.745l-10.925-.054c-1.111,1.53-2.9,3.95-3.88,5.312a.761.761,0,0,1-1.274-.069l-3.031-5.287-10.9-.059a2.758,2.758,0,0,1-1.95-.817,2.839,2.839,0,0,1-.592-.9,2.684,2.684,0,0,1-.2-1.058l.119-21.812a2.732,2.732,0,0,1,.82-1.954,2.739,2.739,0,0,1,1.96-.8Z" transform="translate(-751.65 -400.398)" fill="none" stroke="#3f4249" stroke-miterlimit="10" stroke-width="1"/>
  <path id="Path_795" data-name="Path 795" d="M899.569,308.1h33.226a3.056,3.056,0,0,1,3.056,3.056V335.3a3.06,3.06,0,0,1-3.056,3.061H920.7c-1.224,1.7-3.189,4.443-4.266,5.924a.844.844,0,0,1-1.412-.069l-3.387-5.836H899.569a3.066,3.066,0,0,1-3.061-3.061V311.156a3.062,3.062,0,0,1,3.061-3.056Z" transform="translate(-699.346 -222.204)" fill="none" stroke="#3f4249" stroke-miterlimit="10" stroke-width="1"/>
  <path id="Path_796" data-name="Path 796" d="M553.331,287.8h43.885a4.033,4.033,0,0,1,4.033,4.048v31.893a4.034,4.034,0,0,1-4.033,4.038H581.239c-1.614,2.251-4.211,5.836-5.633,7.8a1.111,1.111,0,0,1-1.861-.094l-4.478-7.707H553.331a4.034,4.034,0,0,1-4.033-4.038V291.848a4.034,4.034,0,0,1,4.033-4.048Z" transform="translate(-193.328 -211.926)" fill="none" stroke="#3f4249" stroke-miterlimit="10" stroke-width="1"/>
  <path id="Path_797" data-name="Path 797" d="M383.657,495.75h33.606a3.091,3.091,0,0,1,3.091,3.091v24.428a3.09,3.09,0,0,1-3.091,3.091H405.03c-1.239,1.723-3.223,4.473-4.314,5.974a.849.849,0,0,1-1.427-.069l-3.431-5.924h-12.2a3.1,3.1,0,0,1-3.1-3.091V498.836a3.1,3.1,0,0,1,3.1-3.086Z" transform="translate(70.87 -317.212)" fill="none" stroke="#3f4249" stroke-miterlimit="10" stroke-width="1"/>
  <path id="Path_798" data-name="Path 798" d="M537.523,661.52h42.3a3.89,3.89,0,0,1,3.89,3.89v30.747a3.89,3.89,0,0,1-3.89,3.89h-15.4c-1.555,2.167-4.053,5.628-5.431,7.519a1.071,1.071,0,0,1-1.8-.089l-4.315-7.43H537.523a3.89,3.89,0,0,1-3.89-3.89V665.41a3.89,3.89,0,0,1,3.89-3.89Z" transform="translate(-168.064 -401.142)" fill="none" stroke="#3f4249" stroke-miterlimit="10" stroke-width="1"/>
  <path id="Path_799" data-name="Path 799" d="M1036.028,456.18h39.387a4.84,4.84,0,0,1,4.843,4.843v28.062a4.84,4.84,0,0,1-4.843,4.843H1061.36c-1.526,2.128-3.95,5.515-5.322,7.366a1.018,1.018,0,0,1-.4.333,1.045,1.045,0,0,1-.509.1,1.047,1.047,0,0,1-.854-.524l-4.231-7.277h-14.016a4.849,4.849,0,0,1-4.843-4.843V461.028a4.871,4.871,0,0,1,1.417-3.426,4.843,4.843,0,0,1,3.421-1.422Z" transform="translate(-910.246 -297.178)" fill="none" stroke="#3f4249" stroke-miterlimit="10" stroke-width="1"/>
  <path id="Path_800" data-name="Path 800" d="M1080.471,478.752l.02,15.255-22.631.036-.02-15.255Z" transform="translate(-923.635 -308.606)" fill="#fff"/>
  <path id="Path_801" data-name="Path 801" d="M1069.009,488.565l11.311-9.044a.246.246,0,0,0,.084-.149.222.222,0,0,0-.049-.164.22.22,0,0,0-.311-.037l-11.029,8.822-10.58-8.822a.238.238,0,0,0-.163-.047.234.234,0,0,0-.153.077.22.22,0,0,0-.049.164.227.227,0,0,0,.079.152Z" transform="translate(-923.662 -308.793)" fill="#dadddf"/>
  <path id="Path_802" data-name="Path 802" d="M1066.078,500.112a.231.231,0,0,0,.143-.049.226.226,0,0,0,0-.316l-7.02-8.329a.235.235,0,0,0-.148-.079.224.224,0,0,0-.163.049.228.228,0,0,0-.079.152.22.22,0,0,0,.049.164l7.045,8.353a.192.192,0,0,0,.079.046.225.225,0,0,0,.094.008Z" transform="translate(-909.909 -314.979)" fill="#dadddf"/>
  <path id="Path_803" data-name="Path 803" d="M1087.961,500.11a.2.2,0,0,0,.094-.02.18.18,0,0,0,.079-.059l7.021-8.329a.219.219,0,0,0,.049-.164.227.227,0,0,0-.079-.152.22.22,0,0,0-.163-.051.232.232,0,0,0-.153.08l-7.02,8.329a.243.243,0,0,0-.049.164.218.218,0,0,0,.222.2Z" transform="translate(-953.11 -314.977)" fill="#dadddf"/>
  <path id="Path_813" data-name="Path 813" d="M829.779,1008.45l13.458.815-.256,4.216-13.458-.82Z" transform="translate(-573.663 -576.794)" fill="#21252b"/>
  <path id="Path_814" data-name="Path 814" d="M720.782,515.136l-15.734,4.784a8.343,8.343,0,0,0-5.722,6.912l-4.443,30.7h8.975v34.154h50.974V557.318h17.121l-.987-29.992a8.392,8.392,0,0,0-6.226-7.993l-19.383-4.473Z" transform="translate(-435.908 -326.888)" fill="#2d333b"/>
  <g id="Group_249" data-name="Group 249" transform="translate(260.989 187.972)" opacity="0.5">
    <path id="Path_815" data-name="Path 815" d="M702.644,523.89a7.9,7.9,0,0,1,3.456,1.846v36.139h-3.584V523.86Z" transform="translate(-634.812 -519.417)" opacity="0.2"/>
    <path id="Path_816" data-name="Path 816" d="M719.834,521.394v38.79H716.25V520.52Z" transform="translate(-655.326 -517.726)" opacity="0.2"/>
    <path id="Path_817" data-name="Path 817" d="M729.953,592.859V517.18l3.584.874v74.8Z" transform="translate(-675.794 -516.035)" opacity="0.2"/>
    <path id="Path_818" data-name="Path 818" d="M743.68,591.684v-76.8l.573-.02,3.012.375v76.449Z" transform="translate(-696.298 -514.86)" opacity="0.2"/>
    <path id="Path_819" data-name="Path 819" d="M757.383,591.745v-76.73l3.584-.035v76.765Z" transform="translate(-716.766 -514.921)" opacity="0.2"/>
    <path id="Path_820" data-name="Path 820" d="M771.094,591.816V515.159l3.584-.04v76.7Z" transform="translate(-737.246 -514.992)" opacity="0.2"/>
    <path id="Path_821" data-name="Path 821" d="M784.8,591.892V515.309l3.584-.039v76.622Z" transform="translate(-757.726 -515.068)" opacity="0.2"/>
    <path id="Path_822" data-name="Path 822" d="M798.523,591.967V516.511l3.584-1.091v76.548Z" transform="translate(-778.217 -515.143)" opacity="0.2"/>
    <path id="Path_823" data-name="Path 823" d="M812.234,594.079v-73.4l3.584-1.091v74.489Z" transform="translate(-798.697 -517.255)" opacity="0.2"/>
    <path id="Path_824" data-name="Path 824" d="M826.2,596.19V562.036H826V525.009a7.952,7.952,0,0,1,1.387-.578l2.172-.671v72.43Z" transform="translate(-819.234 -519.366)" opacity="0.2"/>
    <path id="Path_825" data-name="Path 825" d="M839.664,566.451V552.628l2.429-16.875a8.78,8.78,0,0,1,1.15-3.273v33.971Z" transform="translate(-839.664 -523.781)" opacity="0.2"/>
  </g>
  <path id="Path_826" data-name="Path 826" d="M792.467,425.513a8.476,8.476,0,0,0-9.148,1.832c-4.182,4.093-1.229,6.823-4.937,8.847s-.987,7.637-5.292,10.185-1.481,8.842,2.962,9.741c0,0,2.123,5.831,6.783,5.283,0,0,4.31,4.991,12.718,1.822l3.1-1.313Z" transform="translate(-500.158 -281.337)"/>
  <path id="Path_827" data-name="Path 827" d="M726.937,428.076s5.648.75,6.739,5.924.7,3.95,3.8,6.576-.82,5.608,1.639,8.24a6.13,6.13,0,0,1,1.975,3.708,4.758,4.758,0,0,1-.839,3.046,4.491,4.491,0,0,1-2.533,1.787c-1.432.415-2.6,1.812-3.456,3.708-1.683,3.757-7.711,2.123-7.711,2.123s-5.692,3.416-9.178.884,1.767-37.521,1.767-37.521Z" transform="translate(-415.571 -282.176)"/>
  <path id="Path_828" data-name="Path 828" d="M749.773,420.341s2.36-5.431,10.861-5.431,11.113,8.314,11.113,8.314l-12.342,6.724Z" transform="translate(-462.801 -276.283)"/>
  <path id="Path_829" data-name="Path 829" d="M797.06,481.819a1.99,1.99,0,1,1,1.99-1.99A1.989,1.989,0,0,1,797.06,481.819Z" transform="translate(-512.465 -308.145)" fill="#4d61fc"/>
  <path id="Path_830" data-name="Path 830" d="M800.279,477.84a2.133,2.133,0,0,1,.4.039,1.975,1.975,0,0,0,0,3.9,2.133,2.133,0,0,1-.4.039,1.99,1.99,0,1,1,0-3.979Z" transform="translate(-515.684 -308.145)" opacity="0.2"/>
  <path id="Path_831" data-name="Path 831" d="M773.38,491.092s-4.443-.721-3.915-3.313l-.494-17.279-15.3-3.1-2.261,20.538a3.2,3.2,0,0,1-2.291,2.676l-2.256.721,1.767,17.748Z" transform="translate(-462.995 -302.859)" fill="#fc9d9d"/>
  <path id="Path_832" data-name="Path 832" d="M754.791,459.263l.543-13.878a4.747,4.747,0,0,1,1.4-3.2,4.217,4.217,0,0,1,3.12-1.185l13.182.627a3.111,3.111,0,0,1,1.274.321,3.335,3.335,0,0,1,1.057.82,3.544,3.544,0,0,1,.686,1.185,3.79,3.79,0,0,1,.2,1.372l-.6,14.929a11.215,11.215,0,0,1-.923,4.038,10.6,10.6,0,0,1-2.315,3.352,9.925,9.925,0,0,1-3.352,2.157,9.453,9.453,0,0,1-3.871.632l-.77-.044a9.9,9.9,0,0,1-6.976-3.456,11.1,11.1,0,0,1-2.656-7.667Z" transform="translate(-469.781 -289.488)" fill="#fc9d9d"/>
  <path id="Path_833" data-name="Path 833" d="M775.757,471.031a1.155,1.155,0,1,1,1.155-1.155,1.151,1.151,0,0,1-.337.819,1.155,1.155,0,0,1-.376.25,1.143,1.143,0,0,1-.443.086Z" transform="translate(-480.224 -303.527)"/>
  <path id="Path_834" data-name="Path 834" d="M777.64,471.5a.236.236,0,0,1-.092-.017.224.224,0,0,1-.078-.051.234.234,0,0,1-.071-.169.247.247,0,0,1,.494,0,.236.236,0,0,1-.02.094.243.243,0,0,1-.055.079.234.234,0,0,1-.082.05.229.229,0,0,1-.095.014Z" transform="translate(-482.583 -304.691)" fill="#fff"/>
  <path id="Path_835" data-name="Path 835" d="M793.944,471.031a1.156,1.156,0,1,1,1.155-1.155,1.15,1.15,0,0,1-1.155,1.155Z" transform="translate(-507.389 -303.527)"/>
  <path id="Path_836" data-name="Path 836" d="M795.851,471.384a.242.242,0,1,1,.092-.466.242.242,0,0,1-.092.466Z" transform="translate(-509.775 -304.631)" fill="#fff"/>
  <path id="Path_837" data-name="Path 837" d="M757.111,484.686l-1.728-3.456h1.634Z" transform="translate(-450.934 -309.861)" opacity="0.15"/>
  <g id="Group_250" data-name="Group 250" transform="translate(289.079 168.482)" opacity="0.15">
    <path id="Path_838" data-name="Path 838" d="M783.8,476.635a1.388,1.388,0,0,1,1.481-1.249.332.332,0,0,1,.2.138.35.35,0,0,1,.059.242.334.334,0,0,1-.124.212.329.329,0,0,1-.232.079.786.786,0,0,0-.77.671.7.7,0,0,0,.153.515.7.7,0,0,0,.474.255l1.535.143a.346.346,0,0,1,.2.138.332.332,0,0,1,.054.242.321.321,0,0,1-.119.212.33.33,0,0,1-.232.079l-1.54-.143a1.231,1.231,0,0,1-.528-.138,1.193,1.193,0,0,1-.415-.355,1.142,1.142,0,0,1-.222-.494,1.123,1.123,0,0,1,0-.543Z" transform="translate(-783.75 -475.383)" opacity="0.15"/>
  </g>
  <path id="Path_839" data-name="Path 839" d="M743.922,472.308l1.15-5.495c1.3-5,7.445-3.555,5.954,1.392s-6.532,4.083-6.532,4.083Z" transform="translate(-439.422 -300.988)" fill="#fc9d9d"/>
  <path id="Path_840" data-name="Path 840" d="M750.535,467.1a.369.369,0,0,1-.494.049,1.149,1.149,0,0,0-.454-.321,1.131,1.131,0,0,0-1.417.558,3.505,3.505,0,0,0-.578,1.585l-.1.578c-.044.494-.721.291-.671-.094l.049-.528a3.707,3.707,0,0,1,.721-1.92,1.813,1.813,0,0,1,.553-.578,1.841,1.841,0,0,1,.741-.286,1.932,1.932,0,0,1,1.481.528.352.352,0,0,1,.143.193.394.394,0,0,1,0,.237Z" transform="translate(-440.13 -302.22)" opacity="0.15"/>
  <path id="Path_841" data-name="Path 841" d="M771.89,461.115a4.441,4.441,0,0,1,1.792.583,4.353,4.353,0,0,1,1.382,1.269,3.949,3.949,0,0,1,2.646.044,4.275,4.275,0,1,1-.617,1.891,4.671,4.671,0,0,1,.355-1.363,3.6,3.6,0,0,0-2.118-.044A4.267,4.267,0,1,1,767.56,467a4.2,4.2,0,0,1-.3-1.925,4.365,4.365,0,0,1,4.626-3.95Zm9.1,7.805a3.7,3.7,0,0,0,3.1-6.087,3.743,3.743,0,0,0-1.8-1.155,3.7,3.7,0,0,0-2.148.049,3.65,3.65,0,0,0-1.758,1.224A3.7,3.7,0,0,0,781,468.92Zm-9.746.178a3.7,3.7,0,1,0-2.523-1.289,3.7,3.7,0,0,0,2.523,1.289Z" transform="translate(-485.302 -299.605)" fill="#f4f4f4"/>
  <path id="Path_842" data-name="Path 842" d="M765.554,499.758a8.478,8.478,0,0,0,7.613-1.224c.908-.1,5.717-1.022,4.8-2.157a12.39,12.39,0,0,1-11.982-.316Z" transform="translate(-476.93 -317.369)" opacity="0.15"/>
  <path id="Path_843" data-name="Path 843" d="M783.358,484.73c.188,0,.237.143.188.286a3.308,3.308,0,0,1-5.954,0,.211.211,0,0,1,0-.1.192.192,0,0,1,.03-.094.2.2,0,0,1,.074-.069.238.238,0,0,1,.1,0Z" transform="translate(-488.348 -311.633)" fill="#fff"/>
  <path id="Path_844" data-name="Path 844" d="M812.613,961.789c3.545-1.906,19.081-4.557,20.878-9.163h.143l2.9-60.6h18.321l-9.978,62.522c-.281,5.367-.494,9.351-.494,9.351-.143,5.594-7.47,1.649-9.874,1.822l-22.063.987C812.1,966.03,811.566,962.263,812.613,961.789Z" transform="translate(-576.628 -517.851)" fill="#fc9d9d"/>
  <path id="Path_845" data-name="Path 845" d="M741.786,1036.11H725v2.814a.722.722,0,0,0,.518.7,28.633,28.633,0,0,0,15.744,0,.723.723,0,0,0,.494-.7Z" transform="translate(-420.609 -590.799)" fill="#21252b"/>
  <path id="Path_846" data-name="Path 846" d="M728.523,926.728l15.937-.168-1.975,39a16.824,16.824,0,0,0,.38,4.532l.987,4.572H730.967l.647-4.937a17.412,17.412,0,0,0,.069-3.757Z" transform="translate(-425.022 -535.333)" fill="#fc9d9d"/>
  <path id="Path_847" data-name="Path 847" d="M732.27,974.666h-2.587c-1.856-4.379-.928-10.22-.928-10.22V926.6l4.1-.045-1.975,39a16.824,16.824,0,0,0,.38,4.532Z" transform="translate(-413.415 -535.333)" opacity="0.15"/>
  <path id="Path_848" data-name="Path 848" d="M739.4,1022.478a36.19,36.19,0,0,1,2.38,5.2H725.258s.716-2.681,1.555-5.2l.78-.178a22.793,22.793,0,0,1,11.8.2Z" transform="translate(-420.732 -583.462)" fill="#21252b"/>
  <path id="Path_849" data-name="Path 849" d="M727.939,1031.03s2.518-.306,5.431-.41c2.923.1,5.431.41,5.431.41,3.357.356,2.962,2.469,2.962,2.469,0,.627-2.745.884-5.011.987q-1.688.082-3.377.03-1.678.052-3.372-.03c-2.266-.109-5.011-.365-5.011-.987C724.977,1033.518,724.567,1031.385,727.939,1031.03Z" transform="translate(-420.585 -588.019)" fill="#fc9d9d"/>
  <path id="Path_850" data-name="Path 850" d="M731.709,1003.35l11.394.02-.007,4.221-11.394-.02Z" transform="translate(-425.236 -574.212)" fill="#21252b"/>
  <path id="Path_851" data-name="Path 851" d="M728.376,1029.91c.6.069.963.124.963.124,3.357.42,2.962,2.937,2.962,2.937,0,.741-2.745,1.042-5.011,1.17-.785.044-1.575.054-2.36.049C731.422,1033.865,728.376,1029.91,728.376,1029.91Z" transform="translate(-411.104 -587.66)" opacity="0.15"/>
  <path id="Path_852" data-name="Path 852" d="M824.881,973.13l5.036-42.206,5.579-4.364-7.262,45.494c-.252,4.779-.444,8.457-.494,9.2H817.5C822.269,981.192,824.881,973.13,824.881,973.13Z" transform="translate(-559.985 -535.333)" opacity="0.15"/>
  <path id="Path_853" data-name="Path 853" d="M751.086,431.046A7.7,7.7,0,0,0,758,437.578c6.477.913,5.075,4.7,12.969,3.792,0,0,2.844-4.122-1.377-8.393-2.789-2.814-8.24-5.154-12.15-4.769C756.1,428.37,752.972,430.676,751.086,431.046Z" transform="translate(-463.606 -282.994)"/>
  <path id="Path_854" data-name="Path 854" d="M797.382,434.82s4.038,4.058-7.144,11.414a7.687,7.687,0,0,1,.721-4.675C792.169,439.189,797.382,434.82,797.382,434.82Z" transform="translate(-509.075 -286.363)"/>
  <path id="Path_855" data-name="Path 855" d="M835.585,577.186l.815-21.545a.672.672,0,0,0-.037-.26.663.663,0,0,0-.6-.441h0a.646.646,0,0,0-.627.548l-3.885,21.723Z" transform="translate(-567.678 -347.181)" opacity="0.2"/>
  <path id="Path_856" data-name="Path 856" d="M753.029,481.819a1.99,1.99,0,1,1,1.99-1.99A1.989,1.989,0,0,1,753.029,481.819Z" transform="translate(-446.696 -308.145)" fill="#4d61fc"/>
  <path id="Path_857" data-name="Path 857" d="M756.262,477.84a2.086,2.086,0,0,1,.4.039,1.975,1.975,0,0,0,0,3.9,2.126,2.126,0,0,1-.4.039,1.99,1.99,0,1,1,0-3.979Z" transform="translate(-449.932 -308.145)" opacity="0.2"/>
  <path id="Path_858" data-name="Path 858" d="M818.425,585.234h12.629a.726.726,0,0,0,.726-.726L827.208,561.2a.721.721,0,0,0-.448-.667.73.73,0,0,0-.277-.053H813.854a.72.72,0,0,0-.721.721l4.572,23.307a.72.72,0,0,0,.209.513.72.72,0,0,0,.511.213Z" transform="translate(-554.114 -349.985)" fill="#21252b"/>
  <path id="Path_859" data-name="Path 859" d="M818.425,585.234h12.629a.726.726,0,0,0,.726-.726L827.208,561.2a.721.721,0,0,0-.448-.667.73.73,0,0,0-.277-.053H813.854a.72.72,0,0,0-.721.721l4.572,23.307a.72.72,0,0,0,.209.513.72.72,0,0,0,.511.213Z" transform="translate(-554.114 -349.985)" opacity="0.3"/>
  <path id="Path_860" data-name="Path 860" d="M819.9,585.988h11.77a.722.722,0,0,0,.721-.726l-4.572-22.587a.721.721,0,0,0-.721-.726H815.33a.72.72,0,0,0-.721.726l4.572,22.587a.714.714,0,0,0,.053.277.724.724,0,0,0,.156.235.721.721,0,0,0,.511.213Z" transform="translate(-555.454 -350.73)" fill="#21252b"/>
  <path id="Path_861" data-name="Path 861" d="M833.64,569.322a1.1,1.1,0,1,0,1.387-.494,1.046,1.046,0,0,0-1.387.494Z" transform="translate(-568.102 -354.162)" fill="#f4f4f4"/>
  <path id="Path_862" data-name="Path 862" d="M781.609,670.56s5.549,34.006,3.871,59.609l-3.15,71.142H765.544l-8.092-101.7c-.054-1.219-.592-2.177-1.812-2.177a2.276,2.276,0,0,0-2.261,1.975l-15.537,101.9h-17.21l9.588-130.75Z" transform="translate(-462.462 -405.719)" fill="#2d333b"/>
  <path id="Path_863" data-name="Path 863" d="M831.7,1040.024a1.63,1.63,0,0,0,.586.736,1.65,1.65,0,0,0,.9.281l18.563.084a1.592,1.592,0,0,0,.892-.267,1.616,1.616,0,0,0,.589-.721l.128-.331a.272.272,0,0,1,.091-.109.222.222,0,0,1,.134-.044.266.266,0,0,1,.139.025.3.3,0,0,1,.1.1l.316.563a1.6,1.6,0,0,0,1.432.81l8.482-.143a1.59,1.59,0,0,0,1.094-.454,1.573,1.573,0,0,0,.471-1.086l.035-1.827-34.594.36a10.757,10.757,0,0,0,.642,2.024Z" transform="translate(-596.841 -591.573)" fill="#21252b"/>
  <path id="Path_864" data-name="Path 864" d="M873.414,1032.226c-.355-1.94-2.547-3.95-2.547-3.95l5.253-1.846c1.975,1.456,3.165,5.806,3.165,5.806Z" transform="translate(-630.121 -585.898)" fill="#21252b"/>
  <path id="Path_865" data-name="Path 865" d="M829.691,1003.54l13.464.711-.222,4.211-13.464-.706Z" transform="translate(-573.554 -574.309)" fill="#21252b"/>
  <path id="Path_866" data-name="Path 866" d="M836.261,1012.969l-5.628,12.525h6.423l.592-12.634Z" transform="translate(-568.622 -579.027)" fill="#21252b"/>
  <path id="Path_867" data-name="Path 867" d="M805.335,724.012h-.084a2.271,2.271,0,0,0-2.261,1.975l-15.3,101.7h-5.208l13.369-99.282a6.079,6.079,0,0,1,3.619-4.907A6.978,6.978,0,0,1,805.335,724.012Z" transform="translate(-512.534 -432.295)" opacity="0.3"/>
  <path id="Path_868" data-name="Path 868" d="M725.475,720.769c.237-7.855-1.081-39.713-4.843-50.209h7.539s5.549,34.006,3.871,59.609l-3.357,70.944h-3.95l.568-69.888Q725.322,725.992,725.475,720.769Z" transform="translate(-409.024 -405.719)" opacity="0.3"/>
  <path id="Path_869" data-name="Path 869" d="M817.989,592.522V582.11l1.254-3.11,2.523,2.187-.42,1.679c.77-.2,4.557-3.772,6.477-2.468s6.828,8.477,6.828,8.477-6.542,6.754-7.924,7.405c0,0,1.575,6.225,2.064,8.511s.987,8.98-2.064,9.908c-6,1.822-8.393-2.429-9.38-6.122a18.008,18.008,0,0,1-.43-6.6Z" transform="translate(-558.79 -359.362)" fill="#fc9d9d"/>
  <path id="Path_870" data-name="Path 870" d="M823.724,597.412l2.306-3.456-4.73-2.908a2.506,2.506,0,0,1-1.215-1.881,2.553,2.553,0,0,1,.276-1.377s-1.259-2.1-.42-3.777a2.389,2.389,0,0,0,.592-.326l4.216-2.36a2.061,2.061,0,0,1,1.664.2c1.916,1.3,6.828,8.462,6.828,8.462s-2.77,2.864-5.085,5.036l-.074.069-.074.064a16.436,16.436,0,0,1-2.691,2.222s1.575,6.226,2.064,8.511.987,8.98-2.064,9.909c-4.7,1.427-7.193-.879-8.521-3.718C830.872,618.345,823.724,597.412,823.724,597.412Z" transform="translate(-557.385 -360.495)" opacity="0.15"/>
  <path id="Path_871" data-name="Path 871" d="M734.223,613.714H727.6l3.713-53.7a.87.87,0,0,1,.864-.815h0a.869.869,0,0,1,.869.869v19.7h1.92Z" transform="translate(-415.075 -349.337)" opacity="0.2"/>
  <path id="Path_872" data-name="Path 872" d="M697.185,586.063a1.207,1.207,0,0,1,.311-2.113c-1.259-1.679.839-2.518.839-2.518a1.154,1.154,0,0,1-.133-1.175,1.126,1.126,0,0,1,1.812-.494l3.777,2.1,7.559,1.679-.839-3.777,11.1,8.719,33.181,9.726v-8.171h15.487l.444,18.736a8.313,8.313,0,0,1-11.656,7.81l-41.229-19.116-12.342-3.861-6.719-4.152a1.726,1.726,0,0,1-.77-.943c-.351-1.145,1.19-.987,1.19-.987l-1.229-.81C697.708,586.473,697.431,586.29,697.185,586.063Z" transform="translate(-435.549 -359.607)" fill="#fc9d9d"/>
  <path id="Path_873" data-name="Path 873" d="M824.141,583.82l4.2,2.538,5.036,1.679" transform="translate(-561.146 -361.803)" fill="none" stroke="#000" stroke-linecap="round" stroke-miterlimit="10" stroke-width="0.85" opacity="0.15"/>
  <path id="Path_874" data-name="Path 874" d="M825.844,588.11l3.777,2.518,5.455,2.1" transform="translate(-563.685 -363.975)" fill="none" stroke="#000" stroke-linecap="round" stroke-miterlimit="10" stroke-width="0.85" opacity="0.15"/>
  <path id="Path_875" data-name="Path 875" d="M827.539,595.76l2.73,1.679,4.2,2.1" transform="translate(-563.912 -367.848)" fill="none" stroke="#000" stroke-linecap="round" stroke-miterlimit="10" stroke-width="0.85" opacity="0.15"/>
  <path id="Path_876" data-name="Path 876" d="M696.64,608.085l2.636.583a45.607,45.607,0,0,0,9.953,1.1h0l39.777,15.946c10.718,3.678,12.436-1.427,12.836-4.443l.044,1.817a8.543,8.543,0,0,1-1.935,5.692,8.314,8.314,0,0,1-9.721,2.281L709,611.941,696.66,608.08" transform="translate(-426.713 -374.086)" opacity="0.15"/>
  <path id="Path_877" data-name="Path 877" d="M698.945,533.152a11.672,11.672,0,0,0-3.984-9.232h.114a8.393,8.393,0,0,1,6.226,7.993l.987,29.992h-3.382Z" transform="translate(-366.28 -331.475)" opacity="0.2"/>
  <path id="Path_878" data-name="Path 878" d="M721.494,615.738s1.155.449,3.485,1.14a.133.133,0,0,0,.163-.072.133.133,0,0,0-.055-.17l-3.6-2.266Z" transform="translate(-402.242 -377.27)" opacity="0.15"/>
  <path id="Path_880" data-name="Path 880" d="M280.171,1046.47H801.349a.715.715,0,0,0,.322-.02.705.705,0,0,0,.285-.148.742.742,0,0,0,.2-.257.756.756,0,0,0,0-.632.742.742,0,0,0-.2-.257.705.705,0,0,0-.285-.148.715.715,0,0,0-.322-.02H280.171a.733.733,0,0,0-.326.02.7.7,0,0,0-.281.148.719.719,0,0,0-.2.257.756.756,0,0,0,0,.632.719.719,0,0,0,.2.257.7.7,0,0,0,.281.148A.733.733,0,0,0,280.171,1046.47Z" transform="translate(-261.002 -595.289)" fill="#b2b6bb"/>
  <path id="Path_883" data-name="Path 883" d="M350.618,894.756a25.785,25.785,0,0,1,11.019-3.792c1.8-.188,3.767-.133,5.213.958a1.07,1.07,0,0,1,.538.948,1.13,1.13,0,0,1-.494.652,15.748,15.748,0,0,1-16.257,1.234" transform="translate(138.619 -517.269)" fill="#4d61fc"/>
  <path id="Path_884" data-name="Path 884" d="M360.34,880.379a55.932,55.932,0,0,0,7.114-6.265,17.787,17.787,0,0,0,4.443-8.25,3.336,3.336,0,0,0-.35-2.765c-5.678,4.443-10.131,10.165-11.227,17.279" transform="translate(129.188 -503.203)" fill="#2d333b"/>
  <path id="Path_885" data-name="Path 885" d="M389.424,881.152a25.734,25.734,0,0,0-.128-9.346,12.609,12.609,0,0,0-4.981-7.707c-.987,2.291-.558,4.937.133,7.322a35.485,35.485,0,0,0,4.937,10.392" transform="translate(99.871 -503.71)" fill="#4d61fc"/>
  <path id="Path_886" data-name="Path 886" d="M367.594,918.83a16.421,16.421,0,0,1,8.837,4.443,16.786,16.786,0,0,1,5.055,8.679c-3.313-.2-6.122-2.537-8.161-5.159s-3.456-5.49-5.687-7.939" transform="translate(116.14 -531.42)" fill="#2d333b"/>
  <path id="Path_887" data-name="Path 887" d="M398.662,900.907a21.8,21.8,0,0,0-2.518-20.617A26.261,26.261,0,0,0,398.662,900.907Z" transform="translate(83.866 -511.907)" fill="#4d61fc"/>
  <path id="Path_888" data-name="Path 888" d="M382.156,939.748a15.749,15.749,0,0,1,15.068,8.674,1.166,1.166,0,0,1,.1,1.18,1.135,1.135,0,0,1-.987.3c-2.962-.193-5.6-1.975-7.771-4.014s-4.068-4.389-6.467-6.147" transform="translate(93.023 -541.995)" fill="#4d61fc"/>
  <path id="Path_889" data-name="Path 889" d="M414.73,917.406a28.069,28.069,0,0,0,.281-15.675c-.553-2.019-1.481-4.147-3.347-5.09a.629.629,0,0,0-.494-.089.662.662,0,0,0-.326.375,9.446,9.446,0,0,0-.79,4.5,28.537,28.537,0,0,0,.706,4.552c.588,2.784.9,5.771,2.429,8.171a16.564,16.564,0,0,1,.987,1.8c.291.612.291.824.558,1.308" transform="translate(60.684 -520.132)" fill="#2d333b"/>
  <path id="Path_890" data-name="Path 890" d="M456.211,926.971a20.216,20.216,0,0,0-3.54-16.618c-.257-.331-.592-.686-.987-.647-.637.054-.8.9-.775,1.54A30.044,30.044,0,0,0,456.211,926.971Z" transform="translate(-0.255 -526.799)" fill="#4d61fc"/>
  <path id="Path_891" data-name="Path 891" d="M475.376,941.22a24.159,24.159,0,0,1-19.837-4.034,16.032,16.032,0,0,1,10.723-1.318,15.3,15.3,0,0,1,9.1,5.352" transform="translate(-21.167 -539.848)" fill="#4d61fc"/>
  <path id="Path_892" data-name="Path 892" d="M476.536,929.042a22.9,22.9,0,0,0-18.005-10.412,11.089,11.089,0,0,0,5.885,6.512,32.745,32.745,0,0,0,8.645,2.528c1.15.222,2.73.469,3.456,1.372" transform="translate(-23.804 -531.318)" fill="#4d61fc"/>
  <path id="Path_893" data-name="Path 893" d="M449.87,882.332a53.767,53.767,0,0,1-2.3-10.545,17.545,17.545,0,0,1,2.1-10.427,22.955,22.955,0,0,1,.306,21.338" transform="translate(5.72 -502.322)" fill="#4d61fc"/>
  <g id="Group_254" data-name="Group 254" transform="translate(453.22 359.038)" opacity="0.4">
    <path id="Path_894" data-name="Path 894" d="M449.87,882.332a53.767,53.767,0,0,1-2.3-10.545,17.545,17.545,0,0,1,2.1-10.427,22.955,22.955,0,0,1,.306,21.338" transform="translate(-447.5 -861.36)" fill="#fff" opacity="0.4"/>
  </g>
  <path id="Path_895" data-name="Path 895" d="M497.294,877.329c-4.073-7.405-12.387-13.33-20.794-14.149C479.744,871.257,488.591,877.5,497.294,877.329Z" transform="translate(-53.434 -503.244)" fill="#4d61fc"/>
  <g id="Group_255" data-name="Group 255" transform="translate(423.066 359.936)">
    <path id="Path_896" data-name="Path 896" d="M497.294,877.329c-4.073-7.405-12.387-13.33-20.794-14.149C479.744,871.257,488.591,877.5,497.294,877.329Z" transform="translate(-476.5 -863.18)" fill="#8e14fa" opacity="0.2"/>
  </g>
  <path id="Path_897" data-name="Path 897" d="M494.985,893.541c-6.077.928-11.256,4.809-16.934,7.163a7.6,7.6,0,0,1-3.826.731,3.042,3.042,0,0,1-1.9-5.287,8.154,8.154,0,0,1,2.779-1.683c6.186-2.577,12.836-2.641,19.333-1.081" transform="translate(-48.556 -518.008)" fill="#4d61fc"/>
  <path id="Path_898" data-name="Path 898" d="M481.42,903.106c-1.377.39-1.846,1.106-2.937,2.034a31.729,31.729,0,0,1-12.836,6.6c-.494.118-1.136.168-1.377-.276s.054-.854.331-1.2A17.71,17.71,0,0,1,472.351,905c2.962-1.106,5.529-2.434,9.069-2.148" transform="translate(-31.477 -523.309)" fill="#4d61fc"/>
  <path id="Path_899" data-name="Path 899" d="M475.8,850.6a24.309,24.309,0,0,1-18.632,6.339,1.288,1.288,0,0,1-.849-.306c-.469-.494.094-1.3.642-1.723C462.433,850.636,469.068,848.869,475.8,850.6Z" transform="translate(-21.886 -496.54)" fill="#4d61fc"/>
  <path id="Path_900" data-name="Path 900" d="M488.92,842.594a25.971,25.971,0,0,0-23.248-3.841,18.407,18.407,0,0,0,11.079,4.863,34.921,34.921,0,0,0,12.17-1.027" transform="translate(-39.714 -490.261)" fill="#4d61fc"/>
  <path id="Path_901" data-name="Path 901" d="M455.531,806.963c.538-5.465.193-9.78.568-15.27.035-.439.128-.987.538-1.126.573-.222,1.047.494,1.234,1.066a17.5,17.5,0,0,1-2.33,15.211" transform="translate(-4.457 -466.459)" fill="#4d61fc"/>
  <path id="Path_902" data-name="Path 902" d="M473.108,807.414a32.021,32.021,0,0,1-9.054-8.8c-1.792-2.468-3.3-5.376-2.893-8.393a8.67,8.67,0,0,1,6.532,3.244,18.294,18.294,0,0,1,3.332,6.7c.726,2.4,1.234,4.878,2.083,7.242" transform="translate(-21.641 -466.302)" fill="#4d61fc"/>
  <g id="Group_256" data-name="Group 256" transform="translate(439.453 323.915)">
    <path id="Path_903" data-name="Path 903" d="M473.108,807.414a32.021,32.021,0,0,1-9.054-8.8c-1.792-2.468-3.3-5.376-2.893-8.393a8.67,8.67,0,0,1,6.532,3.244,18.294,18.294,0,0,1,3.332,6.7c.726,2.4,1.234,4.878,2.083,7.242" transform="translate(-461.094 -790.217)" fill="#8e14fa" opacity="0.2"/>
  </g>
  <path id="Path_904" data-name="Path 904" d="M501.168,805.957a72.956,72.956,0,0,1-22.285-13.142c2.661-1.071,5.707-.429,8.368.647A26.443,26.443,0,0,1,501.282,805.9" transform="translate(-58.598 -467.339)" fill="#4d61fc"/>
  <path id="Path_905" data-name="Path 905" d="M490.9,824.5a45.352,45.352,0,0,1-12.372.059,51.724,51.724,0,0,1-11.552-3.841,1.343,1.343,0,0,1-.785-.593.908.908,0,0,1,.281-.987,2.43,2.43,0,0,1,.987-.459,21.387,21.387,0,0,1,12.486.745,57.762,57.762,0,0,1,10.96,5.08" transform="translate(-41.938 -480.399)" fill="#4d61fc"/>
  <path id="Path_906" data-name="Path 906" d="M415.927,833.069a21.907,21.907,0,0,0,.2-18.119c-1.708,2.6-1.915,5.924-1.6,9.01s1.254,6.28,1.318,9.38" transform="translate(56.534 -478.825)" fill="#4d61fc"/>
  <path id="Path_907" data-name="Path 907" d="M358.19,840.188a25.265,25.265,0,0,1,18.76,8,17.555,17.555,0,0,1-10.284-1.911,52.22,52.22,0,0,1-8.808-5.895" transform="translate(125.483 -491.602)" fill="#4d61fc"/>
  <g id="Group_257" data-name="Group 257" transform="translate(483.342 348.584)" opacity="0.2">
    <path id="Path_908" data-name="Path 908" d="M358.19,840.188a25.265,25.265,0,0,1,18.76,8,17.555,17.555,0,0,1-10.284-1.911,52.22,52.22,0,0,1-8.808-5.895" transform="translate(-357.859 -840.186)" opacity="0.2"/>
  </g>
  <path id="Path_909" data-name="Path 909" d="M344.82,834.748c3.426-.281,6.724-.706,10.022.306a12.019,12.019,0,0,1,7.637,6.477,18.071,18.071,0,0,1-9.38-1.772,54.6,54.6,0,0,1-8.264-5.011" transform="translate(146.391 -488.68)" fill="#4d61fc"/>
  <path id="Path_910" data-name="Path 910" d="M362.877,829.891c3.081-2.019,6.25-4.078,9.839-4.937s7.756-.217,10.259,2.469c-2.908,1.708-6.418,1.911-9.8,1.906s-7.5-.04-10.679,1.086" transform="translate(117.17 -483.709)" fill="#4d61fc"/>
  <path id="Path_911" data-name="Path 911" d="M391.314,813.545c5.273-5.179,7.272-14.48,5.149-21.555a32.864,32.864,0,0,0-5.149,21.555" transform="translate(88.715 -467.2)" fill="#4d61fc"/>
  <path id="Path_912" data-name="Path 912" d="M445.411,788.493c-.987-2.315-1.693-4.739-2.582-7.094a20.363,20.363,0,0,0-3.688-6.537,9.69,9.69,0,0,0-6.532-3.382,26.3,26.3,0,0,0,12.673,17.042" transform="translate(20.119 -456.816)" fill="#4d61fc"/>
  <g id="Group_258" data-name="Group 258" transform="translate(452.728 314.664)" opacity="0.2">
    <path id="Path_913" data-name="Path 913" d="M445.411,788.493c-.987-2.315-1.693-4.739-2.582-7.094a20.363,20.363,0,0,0-3.688-6.537,9.69,9.69,0,0,0-6.532-3.382,26.3,26.3,0,0,0,12.673,17.042" transform="translate(-432.609 -771.48)" opacity="0.2"/>
  </g>
  <path id="Path_914" data-name="Path 914" d="M399.672,802.6c1.644-2.266,3.545-5.342,5.776-7.03a9.666,9.666,0,0,1,7.86-2.064,18.316,18.316,0,0,1-13.636,9.094" transform="translate(68.482 -467.868)" fill="#4d61fc"/>
  <path id="Path_915" data-name="Path 915" d="M424.219,788.9a39.106,39.106,0,0,0,2.6-8.422,13.14,13.14,0,0,0-1.318-8.566c-2.893,5.47-3.826,11.355-1.427,17.047" transform="translate(43.414 -457.033)" fill="#4d61fc"/>
  <path id="Path_916" data-name="Path 916" d="M448.3,760.031c-1.639-5.431-6.606-9.42-11.967-11.251a4.4,4.4,0,0,0-2.1-.311,1.812,1.812,0,0,0-1.545,1.289c-.2.923.568,1.748,1.284,2.36a40.743,40.743,0,0,0,14.317,7.9" transform="translate(17.208 -445.155)" fill="#4d61fc"/>
  <path id="Path_917" data-name="Path 917" d="M440.8,744.217a38.846,38.846,0,0,0-1.565-10.368c-1.14-3.328-3.327-6.418-6.517-7.87-.543,3.53,1.017,7.045,2.893,10.086s4.147,5.924,5.273,9.3" transform="translate(24.645 -433.779)" fill="#4d61fc"/>
  <path id="Path_918" data-name="Path 918" d="M412.008,748.3c1.358-3.95,1.481-8.975,3.866-12.416,1.654-2.409,4.3-4.048,5.727-6.6a10.048,10.048,0,0,1-.331,7.489,21.572,21.572,0,0,1-4.379,6.265C415.138,744.915,413.637,746.322,412.008,748.3Z" transform="translate(53.521 -435.455)" fill="#4d61fc"/>
  <path id="Path_919" data-name="Path 919" d="M432.428,882.786c.1,0,.2-26.368.2-58.883s-.069-58.893-.178-58.893-.193,26.363-.2,58.893S432.324,882.786,432.428,882.786Z" transform="translate(33.076 -453.54)" fill="#61656d"/>
  <path id="Path_920" data-name="Path 920" d="M432.578,843.59a5.376,5.376,0,0,0,.987.37l2.725.923c2.3.785,5.46,1.916,8.887,3.323s6.6,2.641,8.422,4.221a6.178,6.178,0,0,1,1.7,2.227c.262.622.306.987.341.987s0-.094,0-.276a4.092,4.092,0,0,0-.193-.77,5.952,5.952,0,0,0-1.654-2.385,14.869,14.869,0,0,0-3.653-2.271c-1.481-.681-3.081-1.392-4.8-2.1-3.456-1.412-6.625-2.508-8.951-3.229-1.16-.365-2.108-.632-2.77-.8a5.777,5.777,0,0,0-1.042-.217Z" transform="translate(9.886 -493.325)" fill="#61656d"/>
  <path id="Path_921" data-name="Path 921" d="M436.273,806a1.572,1.572,0,0,0,.276.3l.849.795c.785.716,1.851,1.688,3.155,2.868l10.516,9.38c4.1,3.648,7.652,7.139,10.106,9.77,1.234,1.313,2.2,2.4,2.863,3.16l.765.884a1.54,1.54,0,0,0,.281.291,3.052,3.052,0,0,0-.222-.341q-.237-.326-.711-.918c-.627-.79-1.57-1.906-2.775-3.244a133.4,133.4,0,0,0-10.057-9.874c-4.117-3.643-7.865-6.912-10.585-9.277l-3.239-2.779-.894-.741a1.633,1.633,0,0,0-.331-.272Z" transform="translate(-1.365 -474.293)" fill="#61656d"/>
  <path id="Path_922" data-name="Path 922" d="M458.679,831.158c.109-.049-.75-2.029-1.6-4.532s-1.264-4.616-1.377-4.6a14.912,14.912,0,0,0,1.017,4.72,30.4,30.4,0,0,0,1.279,3.169,5.171,5.171,0,0,0,.686,1.239Z" transform="translate(-4.545 -482.409)" fill="#61656d"/>
  <path id="Path_923" data-name="Path 923" d="M401.75,853.1a4.428,4.428,0,0,0,.632-.736L404,850.29c1.363-1.758,3.244-4.187,5.352-6.843s4.048-5.041,5.455-6.768l1.654-2.049a5.238,5.238,0,0,0,.573-.78,4.336,4.336,0,0,0-.686.686c-.42.454-1.022,1.13-1.748,1.975-1.481,1.684-3.431,4.043-5.544,6.7s-3.95,5.115-5.268,6.912c-.657.9-1.175,1.639-1.526,2.152a4.587,4.587,0,0,0-.513.824Z" transform="translate(63.73 -488.394)" fill="#61656d"/>
  <path id="Path_924" data-name="Path 924" d="M417.154,851.528a9.385,9.385,0,0,0,2.113-3.95,11.131,11.131,0,0,0,.494-3.994h-.168c.079.306.133.464.163.459s.03-.173,0-.494h-.168a17.947,17.947,0,0,1-.676,3.885A30.369,30.369,0,0,1,417.154,851.528Z" transform="translate(53.382 -493.305)" fill="#4d61fc"/>
  <path id="Path_925" data-name="Path 925" d="M386.141,841.43a6.992,6.992,0,0,1,1.481-.859,9.944,9.944,0,0,1,4.1-.326,25.1,25.1,0,0,1,4.132.666,13.941,13.941,0,0,0,1.7.41,5.681,5.681,0,0,0-1.624-.671,19.044,19.044,0,0,0-4.177-.785,9.162,9.162,0,0,0-4.231.454,2.609,2.609,0,0,0-1.382,1.111Z" transform="translate(90.915 -491.412)" fill="#61656d"/>
  <path id="Path_926" data-name="Path 926" d="M373.648,836.59c.03.059.859-.346,2.261-.824a22.861,22.861,0,0,1,11.409-.869c1.481.262,2.345.533,2.365.494a2.158,2.158,0,0,0-.6-.252,14.063,14.063,0,0,0-1.708-.494,20.19,20.19,0,0,0-11.552.884,13.744,13.744,0,0,0-1.619.731,2.152,2.152,0,0,0-.553.331Z" transform="translate(104.955 -488.562)" fill="#61656d"/>
  <path id="Path_927" data-name="Path 927" d="M426.652,810.137a46.262,46.262,0,0,0,1.654-5.737,47.727,47.727,0,0,0,1.284-5.831,46.967,46.967,0,0,0-1.654,5.737A49.064,49.064,0,0,0,426.652,810.137Z" transform="translate(38.876 -470.531)" fill="#61656d"/>
  <path id="Path_928" data-name="Path 928" d="M423.67,815.605a28.269,28.269,0,0,1,1.832-3.456,17.488,17.488,0,0,1,2.691-2.78,2.538,2.538,0,0,0-1.037.538,8.3,8.3,0,0,0-1.975,2.024A7.9,7.9,0,0,0,423.67,815.605Z" transform="translate(41.755 -476)" fill="#61656d"/>
  <path id="Path_929" data-name="Path 929" d="M383.742,935.654c.039,0,.118-.632.415-1.753a25.384,25.384,0,0,1,1.763-4.567,63.151,63.151,0,0,1,9.351-13.167c2.088-2.385,4.113-4.636,5.831-6.788a47.5,47.5,0,0,0,4.167-6.013,29.1,29.1,0,0,0,2.108-4.443c.193-.553.336-.987.41-1.279a2,2,0,0,0,.109-.454c-.03,0-.222.6-.657,1.679a32.7,32.7,0,0,1-2.2,4.379,49.418,49.418,0,0,1-4.211,5.924c-1.723,2.133-3.752,4.369-5.84,6.759a59.192,59.192,0,0,0-9.306,13.33,22.627,22.627,0,0,0-1.664,4.646,12.381,12.381,0,0,0-.232,1.323,1.914,1.914,0,0,0-.039.424Z" transform="translate(81.761 -520.463)" fill="#61656d"/>
  <path id="Path_930" data-name="Path 930" d="M432.656,927.468a10.448,10.448,0,0,0,1.091.612,23.371,23.371,0,0,1,2.829,1.871,32.878,32.878,0,0,1,3.718,3.387c1.3,1.382,2.646,2.962,4.019,4.7,2.745,3.456,5.307,6.487,6.843,8.916a31.589,31.589,0,0,1,1.718,2.962,8.564,8.564,0,0,0,.6,1.1.777.777,0,0,0-.1-.306c-.1-.2-.193-.494-.37-.859a27.811,27.811,0,0,0-1.619-3.011,98.912,98.912,0,0,0-6.778-9.01c-1.372-1.718-2.735-3.323-4.063-4.7a30.582,30.582,0,0,0-3.806-3.362,20.133,20.133,0,0,0-2.923-1.787c-.365-.183-.657-.291-.854-.375A1.7,1.7,0,0,0,432.656,927.468Z" transform="translate(12.031 -535.792)" fill="#61656d"/>
  <path id="Path_931" data-name="Path 931" d="M446.508,942.894a16,16,0,0,0,2.306.336,30.208,30.208,0,0,1,5.47,1.076,16.411,16.411,0,0,1,4.893,2.577c1.131.869,1.664,1.595,1.713,1.55s-.089-.207-.341-.528a8.888,8.888,0,0,0-1.2-1.234,14.778,14.778,0,0,0-4.937-2.72,24.858,24.858,0,0,0-5.559-.987,12.62,12.62,0,0,0-2.345-.069Z" transform="translate(-2.232 -543.59)" fill="#61656d"/>
  <path id="Path_932" data-name="Path 932" d="M450.69,944.415c.118-.069-.918-1.654-1.723-3.792s-.938-4.043-1.071-4.024a3.579,3.579,0,0,0,.04,1.239,13.237,13.237,0,0,0,.671,2.908,14.174,14.174,0,0,0,1.338,2.671C450.354,944.069,450.63,944.445,450.69,944.415Z" transform="translate(7.301 -540.416)" fill="#61656d"/>
  <path id="Path_933" data-name="Path 933" d="M432.719,886a1.869,1.869,0,0,0,.365.193l1.086.494c.494.2,1.052.464,1.7.8s1.412.681,2.207,1.16l1.259.716c.434.247.864.548,1.328.834.923.563,1.856,1.254,2.849,1.975a53.376,53.376,0,0,1,5.924,5.228,53.916,53.916,0,0,1,5.026,6.122c.671,1.017,1.333,1.975,1.866,2.918.272.464.553.908.79,1.353s.454.874.671,1.284c.449.8.765,1.58,1.081,2.241s.558,1.244.746,1.728l.454,1.1a1.9,1.9,0,0,0,.183.375,1.6,1.6,0,0,0-.109-.4l-.39-1.126c-.168-.494-.385-1.086-.686-1.758s-.6-1.481-1.037-2.281c-.212-.415-.43-.849-.657-1.3s-.494-.9-.775-1.377c-.523-.958-1.18-1.925-1.851-2.962a50.835,50.835,0,0,0-5-6.2,52.134,52.134,0,0,0-6.013-5.248c-.987-.7-1.975-1.392-2.888-1.945-.469-.286-.9-.578-1.348-.824l-1.279-.7c-.8-.464-1.58-.795-2.241-1.116s-1.249-.563-1.733-.745l-1.116-.43a1.516,1.516,0,0,0-.41-.114Z" transform="translate(5.223 -514.798)" fill="#61656d"/>
  <path id="Path_934" data-name="Path 934" d="M464.963,905.52a2.7,2.7,0,0,0-.908-1.348,5.711,5.711,0,0,0-3.648-1.4,10.031,10.031,0,0,0-3.846.75,5.455,5.455,0,0,0-1.451.706,9.109,9.109,0,0,0,1.54-.449,11.518,11.518,0,0,1,3.742-.627,5.925,5.925,0,0,1,3.486,1.224A11.789,11.789,0,0,1,464.963,905.52Z" transform="translate(-10.542 -523.288)" fill="#4d61fc"/>
  <g id="Group_259" data-name="Group 259" transform="translate(489.237 373.612)" opacity="0.2">
    <path id="Path_935" data-name="Path 935" d="M350.618,894.756a25.785,25.785,0,0,1,11.019-3.792c1.8-.188,3.767-.133,5.213.958a1.07,1.07,0,0,1,.538.948,1.13,1.13,0,0,1-.494.652,15.748,15.748,0,0,1-16.257,1.234" transform="translate(-350.618 -890.881)" fill="#8e14fa" opacity="0.2"/>
  </g>
  <g id="Group_260" data-name="Group 260" transform="translate(483.605 360.39)" opacity="0.4">
    <path id="Path_936" data-name="Path 936" d="M389.424,881.152a25.734,25.734,0,0,0-.128-9.346,12.609,12.609,0,0,0-4.981-7.707c-.987,2.291-.558,4.937.133,7.322a35.485,35.485,0,0,0,4.937,10.392" transform="translate(-383.735 -864.1)" fill="#fff" opacity="0.4"/>
  </g>
  <g id="Group_261" data-name="Group 261" transform="translate(478.975 368.383)" opacity="0.2">
    <path id="Path_937" data-name="Path 937" d="M398.662,900.907a21.8,21.8,0,0,0-2.518-20.617A26.261,26.261,0,0,0,398.662,900.907Z" transform="translate(-395.109 -880.29)" fill="#8e14fa" opacity="0.2"/>
  </g>
  <g id="Group_262" data-name="Group 262" transform="translate(475.125 397.723)" opacity="0.2">
    <path id="Path_938" data-name="Path 938" d="M382.156,939.748a15.749,15.749,0,0,1,15.068,8.674,1.166,1.166,0,0,1,.1,1.18,1.135,1.135,0,0,1-.987.3c-2.962-.193-5.6-1.975-7.771-4.014s-4.068-4.389-6.467-6.147" transform="translate(-382.102 -939.718)" fill="#8e14fa" opacity="0.2"/>
  </g>
  <g id="Group_263" data-name="Group 263" transform="translate(434.372 395.629)" opacity="0.4">
    <path id="Path_939" data-name="Path 939" d="M475.376,941.22a24.159,24.159,0,0,1-19.837-4.034,16.032,16.032,0,0,1,10.723-1.318,15.3,15.3,0,0,1,9.1,5.352" transform="translate(-455.539 -935.477)" fill="#fff" opacity="0.4"/>
  </g>
  <g id="Group_264" data-name="Group 264" transform="translate(434.727 387.312)">
    <path id="Path_940" data-name="Path 940" d="M476.536,929.042a22.9,22.9,0,0,0-18.005-10.412,11.089,11.089,0,0,0,5.885,6.512,32.745,32.745,0,0,0,8.645,2.528c1.15.222,2.73.469,3.456,1.372" transform="translate(-458.531 -918.63)" fill="#8e14fa" opacity="0.2"/>
  </g>
  <g id="Group_265" data-name="Group 265" transform="translate(422.741 374.333)" opacity="0.4">
    <path id="Path_941" data-name="Path 941" d="M494.985,893.541c-6.077.928-11.256,4.809-16.934,7.163a7.6,7.6,0,0,1-3.826.731,3.042,3.042,0,0,1-1.9-5.287,8.154,8.154,0,0,1,2.779-1.683c6.186-2.577,12.836-2.641,19.333-1.081" transform="translate(-471.297 -892.342)" fill="#fff" opacity="0.4"/>
  </g>
  <g id="Group_266" data-name="Group 266" transform="translate(425.958 347.277)">
    <path id="Path_942" data-name="Path 942" d="M488.92,842.594a25.971,25.971,0,0,0-23.248-3.841,18.407,18.407,0,0,0,11.079,4.863,34.921,34.921,0,0,0,12.17-1.027" transform="translate(-465.672 -837.538)" fill="#8e14fa" opacity="0.2"/>
  </g>
  <g id="Group_267" data-name="Group 267" transform="translate(451.074 324.067)" opacity="0.4">
    <path id="Path_943" data-name="Path 943" d="M455.531,806.963c.538-5.465.193-9.78.568-15.27.035-.439.128-.987.538-1.126.573-.222,1.047.494,1.234,1.066a17.5,17.5,0,0,1-2.33,15.211" transform="translate(-455.531 -790.526)" fill="#fff" opacity="0.4"/>
  </g>
  <g id="Group_268" data-name="Group 268" transform="translate(420.285 324.926)" opacity="0.4">
    <path id="Path_944" data-name="Path 944" d="M501.168,805.957a72.956,72.956,0,0,1-22.285-13.142c2.661-1.071,5.707-.429,8.368.647A26.443,26.443,0,0,1,501.282,805.9" transform="translate(-478.883 -792.265)" fill="#fff" opacity="0.4"/>
  </g>
  <g id="Group_269" data-name="Group 269" transform="translate(470.933 336.125)" opacity="0.4">
    <path id="Path_945" data-name="Path 945" d="M415.927,833.069a21.907,21.907,0,0,0,.2-18.119c-1.708,2.6-1.915,5.924-1.6,9.01s1.254,6.28,1.318,9.38" transform="translate(-414.399 -814.95)" fill="#fff" opacity="0.4"/>
  </g>
  <g id="Group_270" data-name="Group 270" transform="translate(491.211 345.735)" opacity="0.4">
    <path id="Path_946" data-name="Path 946" d="M344.82,834.748c3.426-.281,6.724-.706,10.022.306a12.019,12.019,0,0,1,7.637,6.477,18.071,18.071,0,0,1-9.38-1.772,54.6,54.6,0,0,1-8.264-5.011" transform="translate(-344.82 -834.415)" fill="#fff" opacity="0.4"/>
  </g>
  <g id="Group_271" data-name="Group 271" transform="translate(479.833 324.79)" opacity="0.2">
    <path id="Path_947" data-name="Path 947" d="M391.314,813.545c5.273-5.179,7.272-14.48,5.149-21.555a32.864,32.864,0,0,0-5.149,21.555" transform="translate(-391.118 -791.99)" opacity="0.2"/>
  </g>
  <g id="Group_272" data-name="Group 272" transform="translate(468.154 325.441)" opacity="0.2">
    <path id="Path_948" data-name="Path 948" d="M399.672,802.6c1.644-2.266,3.545-5.342,5.776-7.03a9.666,9.666,0,0,1,7.86-2.064,18.316,18.316,0,0,1-13.636,9.094" transform="translate(-399.672 -793.309)" opacity="0.2"/>
  </g>
  <g id="Group_273" data-name="Group 273" transform="translate(449.864 303.294)" opacity="0.4">
    <path id="Path_949" data-name="Path 949" d="M448.3,760.031c-1.639-5.431-6.606-9.42-11.967-11.251a4.4,4.4,0,0,0-2.1-.311,1.812,1.812,0,0,0-1.545,1.289c-.2.923.568,1.748,1.284,2.36a40.743,40.743,0,0,0,14.317,7.9" transform="translate(-432.656 -748.449)" fill="#fff" opacity="0.4"/>
  </g>
  <g id="Group_274" data-name="Group 274" transform="translate(465.529 293.835)">
    <path id="Path_950" data-name="Path 950" d="M412.008,748.3c1.358-3.95,1.481-8.975,3.866-12.416,1.654-2.409,4.3-4.048,5.727-6.6a10.048,10.048,0,0,1-.331,7.489,21.572,21.572,0,0,1-4.379,6.265C415.138,744.915,413.637,746.322,412.008,748.3Z" transform="translate(-412.008 -729.29)" fill="#8e14fa" opacity="0.2"/>
  </g>
  <g id="Group_275" data-name="Group 275" transform="translate(470.53 350.245)" opacity="0.4">
    <path id="Path_951" data-name="Path 951" d="M417.154,851.528a9.385,9.385,0,0,0,2.113-3.95,11.131,11.131,0,0,0,.494-3.994h-.168c.079.306.133.464.163.459s.03-.173,0-.494h-.168a17.947,17.947,0,0,1-.676,3.885A30.369,30.369,0,0,1,417.154,851.528Z" transform="translate(-417.148 -843.55)" fill="#fff" opacity="0.4"/>
  </g>
  <g id="Group_276" data-name="Group 276" transform="translate(444.567 379.482)" opacity="0.4">
    <path id="Path_952" data-name="Path 952" d="M464.963,905.52a2.7,2.7,0,0,0-.908-1.348,5.711,5.711,0,0,0-3.648-1.4,10.031,10.031,0,0,0-3.846.75,5.455,5.455,0,0,0-1.451.706,9.109,9.109,0,0,0,1.54-.449,11.518,11.518,0,0,1,3.742-.627,5.925,5.925,0,0,1,3.486,1.224A11.789,11.789,0,0,1,464.963,905.52Z" transform="translate(-455.109 -902.77)" fill="#fff" opacity="0.4"/>
  </g>
  <path id="Path_953" data-name="Path 953" d="M451.568,906.417a13.875,13.875,0,0,1-1.032-3.372,15.912,15.912,0,0,1,.232-3.525,2.189,2.189,0,0,0-.43.987,6.986,6.986,0,0,0,.587,5.055C451.247,906.141,451.534,906.442,451.568,906.417Z" transform="translate(5.313 -521.643)" fill="#61656d"/>
  <path id="Path_954" data-name="Path 954" d="M432.144,982.75c-.568,10.081-3.6,20.325-8.274,30.688H403.559c-4.443-10.259-7.282-20.488-7.786-30.688Z" transform="translate(51.572 -563.782)" fill="#2d333b" stroke="#2d333b" stroke-width="1"/>
  <path id="Path_955" data-name="Path 955" d="M392.828,976.25h39.51v3.337h-39.51Z" transform="translate(52.831 -560.492)" fill="#b2b6bb"/>
  <path id="Path_956" data-name="Path 956" d="M432.134,982.75c-.03.494-.069,1.022-.109,1.535H403.534s-.173,17.418,5.756,29.153h-5.742c-4.443-10.215-7.257-20.409-7.776-30.56Z" transform="translate(51.581 -563.782)" opacity="0.2"/>
  <path id="Path_957" data-name="Path 957" d="M463.185,976.25v3.308l-9.435.03V976.25Z" transform="translate(-8.092 -560.492)" opacity="0.2"/>
  <path id="Path_958" data-name="Path 958" d="M1054.378,780.84h-35.4V790.1h35.4a4.631,4.631,0,0,0,0-9.257" transform="translate(-882.82 -461.555)" fill="#b2b6bb"/>
  <path id="Path_959" data-name="Path 959" d="M1102.322,790.1h-17.9v-1.323h5.544v-6.556h-5.544V780.85h17.9a4.626,4.626,0,0,1,0,9.252Z" transform="translate(-963.214 -461.56)" fill="#868a91"/>
  <path id="Path_960" data-name="Path 960" d="M1087.3,790.137h16.529a3.253,3.253,0,1,0,0-6.507H1087.3Z" transform="translate(-964.771 -462.967)" fill="#fff"/>
  <path id="Path_961" data-name="Path 961" d="M1044.428,766.42H1014.88v7.119h29.548a1.206,1.206,0,0,0,.464-.092,1.233,1.233,0,0,0,.4-.264,1.241,1.241,0,0,0,.355-.864v-4.68a1.249,1.249,0,0,0-.36-.861,1.223,1.223,0,0,0-.859-.358" transform="translate(-867.583 -454.254)" fill="#dadddf"/>
  <path id="Path_962" data-name="Path 962" d="M1030.234,771.26h10.17a.482.482,0,0,1,.345.145.491.491,0,0,1,.148.349v1.575a.492.492,0,0,1-.148.349.484.484,0,0,1-.345.145h-10.17a.5.5,0,0,1-.351-.145.488.488,0,0,1-.143-.349v-1.575a.487.487,0,0,1,.143-.349A.494.494,0,0,1,1030.234,771.26Z" transform="translate(-870.169 -456.704)" fill="#b2b6bb"/>
  <path id="Path_963" data-name="Path 963" d="M1065.35,773.539h16.07a1.242,1.242,0,0,0,.869-.355,1.243,1.243,0,0,0,.355-.864v-4.68a1.225,1.225,0,0,0-1.224-1.219h-16.07Z" transform="translate(-929.496 -454.254)" fill="#b2b6bb"/>
  <path id="Path_964" data-name="Path 964" d="M1067.52,773.516h15.616a.607.607,0,0,0,.607-.607v-3.816a.622.622,0,0,0-.178-.434.616.616,0,0,0-.43-.178H1067.52Z" transform="translate(-931.667 -455.297)" fill="#fff"/>
  <path id="Path_965" data-name="Path 965" d="M1049.728,759.119h34.939V752h-34.939a1.682,1.682,0,0,0-1.678,1.679v3.816a1.687,1.687,0,0,0,1.664,1.644" transform="translate(-922.979 -446.953)" fill="#868a91"/>
  <path id="Path_966" data-name="Path 966" d="M1040.522,754.16h-16.07a.622.622,0,0,0-.435.181.613.613,0,0,0-.178.432v3.816a.627.627,0,0,0,.044.234.553.553,0,0,0,.133.2.621.621,0,0,0,.2.131.6.6,0,0,0,.237.045h16.07Z" transform="translate(-866.881 -448.046)" fill="#fff"/>
  <path id="Path_967" data-name="Path 967" d="M1022.689,752h17.7v1.066h-17.24a.615.615,0,0,0-.232.03.556.556,0,0,0-.2.119.574.574,0,0,0-.138.188.6.6,0,0,0-.044.227v3.866a.6.6,0,0,0,.044.227.7.7,0,0,0,.138.188.606.606,0,0,0,.2.114.615.615,0,0,0,.232.03h17.24v1.066h-17.7a1.236,1.236,0,0,1-.469-.091,1.218,1.218,0,0,1-.4-.264,1.242,1.242,0,0,1-.355-.864v-4.68a1.231,1.231,0,0,1,.355-.864,1.211,1.211,0,0,1,.4-.264,1.232,1.232,0,0,1,.469-.092" transform="translate(-865.577 -446.953)" fill="#b2b6bb"/>
</svg>
