<svg xmlns="http://www.w3.org/2000/svg" width="441.003" height="328.753" viewBox="0 0 441.003 328.753">
  <g id="Responsive-bro" transform="translate(-29.557 -84.067)">
    <g id="freepik--background-simple--inject-1--inject-35">
      <path id="Path_720" data-name="Path 720" d="M450.6,254.14c2.07-27.54-4.34-56.32-12.92-82C424.93,134.09,400.17,95,358.48,86c-24-5.2-48.5.37-69.11,13.39-19.82,12.53-35.28,28.71-59.64,31.85-24.65,3.17-49.94,1.89-74.72,1.89-63.7,0-115.4,66.93-102.48,136.64s73.86,118,125.56,118c46.45,0,84.67-27.87,128.8-35.36,21.88-3.71,43.85.68,65.51-4.88,25.16-6.46,48.83-21.88,62.77-44.21C444.68,288.16,449.3,271.39,450.6,254.14Z" fill="#e6b45a"/>
      <path id="Path_721" data-name="Path 721" d="M450.6,254.14c2.07-27.54-4.34-56.32-12.92-82C424.93,134.09,400.17,95,358.48,86c-24-5.2-48.5.37-69.11,13.39-19.82,12.53-35.28,28.71-59.64,31.85-24.65,3.17-49.94,1.89-74.72,1.89-63.7,0-115.4,66.93-102.48,136.64s73.86,118,125.56,118c46.45,0,84.67-27.87,128.8-35.36,21.88-3.71,43.85.68,65.51-4.88,25.16-6.46,48.83-21.88,62.77-44.21C444.68,288.16,449.3,271.39,450.6,254.14Z" fill="#fff" opacity="0.7"/>
    </g>
    <g id="freepik--Shadow--inject-1--inject-35">
      <ellipse id="Ellipse_53" data-name="Ellipse 53" cx="213.28" cy="7.38" rx="213.28" ry="7.38" transform="translate(44 398.06)" fill="#e6b45a"/>
      <ellipse id="Ellipse_54" data-name="Ellipse 54" cx="213.28" cy="7.38" rx="213.28" ry="7.38" transform="translate(44 398.06)" fill="#fff" opacity="0.5"/>
    </g>
    <g id="freepik--Plants--inject-1--inject-35">
      <path id="Path_722" data-name="Path 722" d="M98.06,309.19s4.68-3.7,5.88-6.07c1-2,1.76-4.87.7-7A4,4,0,0,0,99,294.27c-2.88,1.8-3.18,7.9-2.45,10.84A42.7,42.7,0,0,0,98.06,309.19Z" fill="#e6b45a"/>
      <path id="Path_723" data-name="Path 723" d="M54.81,340c.2.18,3.53,2.6,3.55,2.54s1.86-5.66,1.56-8.3c-.27-2.25-1.22-5-3.29-6.25a4,4,0,0,0-5.75,1.62C49.47,332.65,52.58,337.92,54.81,340Z" fill="#e6b45a"/>
      <path id="Path_724" data-name="Path 724" d="M152.83,314.78s-17.13,17.68-17,39.39,17.37,39.25,17.37,39.25,17.12-17.68,17-39.4S152.83,314.78,152.83,314.78Z" fill="#e6b45a"/>
      <path id="Path_725" data-name="Path 725" d="M128.41,367.18a6.592,6.592,0,0,0,.62-.78c1.25-1.89,2.31-4.64,1.51-6.9a4,4,0,0,0-5.44-2.5c-2.32,1.09-3.47,4.82-3.71,7.87-.93-.21-1.77-.37-2.48-.49l-.93-2.09c-.34-.72-.58-1.45-.87-2.18-.41-1.09-.78-2.23-1.15-3.36,1.35-.61,5.3-2.45,6.77-4.08s3-4.23,2.53-6.59a4,4,0,0,0-5-3.26c-3.25,1-5.16,6.78-5.23,9.81a10.036,10.036,0,0,0,.12,1.5c-.33-1.12-.66-2.24-1-3.38-.83-3.26-1.58-6.59-2.35-9.93-.16-.7-.33-1.39-.49-2.09,1.14-.5,5.43-2.46,7-4.17s3-4.23,2.54-6.59a4,4,0,0,0-5-3.26c-3.25,1-5.16,6.78-5.23,9.81,0,.11.07.87.14,1.73-.44-1.81-.9-3.61-1.42-5.38a69.66,69.66,0,0,0-3.19-8.92c.4-.18,5.48-2.37,7.19-4.27,1.52-1.67,3-4.23,2.54-6.59a4,4,0,0,0-5-3.26c-3.25,1-5.16,6.78-5.23,9.81,0,.21.25,3,.37,4a.489.489,0,0,0,0-.11,52.54,52.54,0,0,0-4.66-8.05,71,71,0,0,0-5.2-6.48c-1.68-1.94-3.35-3.62-4.83-5.09-.81-.79-1.57-1.5-2.28-2.15h.07c.07,0-1.58-3.78-1.71-4-1.52-2.62-6-6.79-9.31-6.07a4,4,0,0,0-2.81,5.27c.74,2.28,3.26,3.81,5.4,4.55s7,.39,8.16.29c.73.69,1.49,1.44,2.32,2.29,1.45,1.5,3.07,3.2,4.71,5.18.44.52.89,1.1,1.33,1.66-.94-.78-2.25-1.84-2.39-1.93-2.56-1.62-8.45-3.26-11.06-1.09a4,4,0,0,0-.07,6c1.71,1.68,4.65,1.88,6.89,1.55s6.5-2.95,7.41-3.53a44.449,44.449,0,0,1,2.86,4,51.921,51.921,0,0,1,4.43,8.05c.07.16.12.34.19.5-.4-.46-2.78-2.87-3-3-2.36-1.89-8-4.17-10.87-2.3a4,4,0,0,0-.72,5.93c1.51,1.85,4.41,2.38,6.67,2.29,2.61-.09,7.74-2.68,7.94-2.78a71,71,0,0,1,2.89,8.7c.59,2.19,1.09,4.43,1.57,6.68-.53-.59-2.75-2.83-2.92-3-2.37-1.9-8-4.17-10.88-2.31a4,4,0,0,0-.72,5.93c1.51,1.86,4.42,2.38,6.68,2.3,2.54-.09,7.47-2.55,7.88-2.76.22,1,.45,2,.66,3.07.69,3.35,1.37,6.72,2.14,10,.27,1.15.57,2.26.88,3.38-.84-.86-2.38-2.42-2.52-2.53-2.37-1.9-8-4.18-10.88-2.31a4,4,0,0,0-.72,5.93c1.51,1.86,4.42,2.38,6.68,2.3s6.46-2.06,7.63-2.64c.51,1.86,1.07,3.7,1.69,5.48.29.76.54,1.55.86,2.27l.47,1.14-.65-.07s-.05,1.06,0,2.79c-2.49-1.78-6.08-3.31-8.42-2.23a4,4,0,0,0-1.61,5.75,6,6,0,0,0,.52.72,15.59,15.59,0,0,0,3.22,7.17c.13.15,1.82,1.71,2.71,2.49-.86-.46-1.71-.92-2.59-1.42-1.27-.7-2.59-1.49-3.88-2.24l-2-1.26c-.68-.42-1.28-.89-1.93-1.34-.94-.68-1.88-1.43-2.81-2.17.79-1.25,3.07-5,3.39-7.13s.16-5.18-1.51-6.9a4,4,0,0,0-6,0c-2.18,2.6-.56,8.5,1,11.07a10.8,10.8,0,0,0,.93,1.18c-.89-.75-1.79-1.5-2.67-2.29-2.49-2.25-5-4.62-7.44-7l-1.56-1.47c.68-1,3.18-5,3.52-7.32s.15-5.18-1.52-6.89a4,4,0,0,0-6,0c-2.18,2.6-.57,8.5,1,11.06a13,13,0,0,0,1.07,1.37c-1.37-1.27-2.75-2.51-4.15-3.7a71.476,71.476,0,0,0-7.59-5.69c.24-.36,3.26-5,3.64-7.52.34-2.24.16-5.18-1.52-6.89a4,4,0,0,0-6,0c-2.18,2.6-.56,8.5,1.05,11.06.11.18,1.85,2.35,2.5,3.11l-.09-.07a53,53,0,0,0-8.34-4.14,70.614,70.614,0,0,0-7.89-2.62c-2.48-.69-4.8-1.17-6.84-1.58-1.12-.21-2.14-.38-3.09-.54h.06s-3.41-2.28-3.65-2.4c-2.71-1.35-8.74-2.35-11.11.07a4,4,0,0,0,.56,5.95c1.88,1.49,4.82,1.38,7,.82s6-3.53,7-4.27c1,.18,2,.38,3.2.63,2,.45,4.33,1,6.79,1.72l2,.65c-1.22-.13-2.89-.28-3.06-.28-3,.06-8.84,1.94-9.83,5.19a4,4,0,0,0,3.24,5c2.35.45,4.92-1,6.6-2.51s3.8-6.05,4.24-7c1.49.51,3,1.07,4.57,1.74a51.339,51.339,0,0,1,8.14,4.27c.15.1.29.22.44.31-.6-.16-3.91-.86-4.15-.88-3-.28-9,1-10.34,4.08a4,4,0,0,0,2.97,5.3c2.29.71,5-.45,6.84-1.77,2.12-1.51,5-6.5,5.08-6.69a69.6,69.6,0,0,1,7.21,5.66c1.7,1.5,3.35,3.09,5,4.7-.78-.2-3.86-.84-4.08-.86-3-.28-9,.95-10.34,4.07a4,4,0,0,0,2.66,5.34c2.29.72,5-.45,6.84-1.76,2.07-1.48,4.82-6.25,5-6.66.75.74,1.5,1.46,2.24,2.2,2.43,2.42,4.85,4.85,7.32,7.18.85.8,1.72,1.56,2.59,2.33-1.17-.26-3.31-.71-3.5-.72-3-.28-9,.95-10.34,4.07a4,4,0,0,0,2.67,5.34c2.28.72,5-.45,6.83-1.76s4.25-5.28,4.92-6.41c1.45,1.27,2.92,2.49,4.43,3.63.66.48,1.3,1,2,1.42l1.95,1.31c1.36.84,2.62,1.63,3.91,2.38l1.9,1.09c-1.15-.44-3-1.12-3.15-1.16-2.94-.74-9-.42-10.84,2.46A4,4,0,0,0,99,389c2.15,1.05,5,.31,7-.71,2.22-1.12,5.57-5.27,6-5.78,1.55.89,3.08,1.74,4.52,2.51,3.84,2.05,7.19,3.69,9.8,4.92,8.45,7.31,20.36,8.11,20.36,8.11s.62-14.25-7.77-23.64A29.36,29.36,0,0,0,128.41,367.18Zm-15.1,13.9c.26-.58,2.29-5.11,2.43-7.67.47-.08.94-.18,1.4-.29a33,33,0,0,0,5.25,12.55q-2.3-1.1-5-2.44c-1.28-.66-2.67-1.39-4.08-2.15Z" fill="#e6b45a"/>
      <path id="Path_726" data-name="Path 726" d="M190.79,364.45s-14.27.44-23,9.51-8.62,23.34-8.62,23.34,14.26-.44,23-9.51S190.79,364.45,190.79,364.45Z" fill="#e6b45a"/>
      <g id="Group_1723" data-name="Group 1723" opacity="0.5">
        <path id="Path_727" data-name="Path 727" d="M98.06,309.19s4.68-3.7,5.88-6.07c1-2,1.76-4.87.7-7A4,4,0,0,0,99,294.27c-2.88,1.8-3.18,7.9-2.45,10.84A42.7,42.7,0,0,0,98.06,309.19Z" fill="#fff"/>
        <path id="Path_728" data-name="Path 728" d="M54.81,340c.2.18,3.53,2.6,3.55,2.54s1.86-5.66,1.56-8.3c-.27-2.25-1.22-5-3.29-6.25a4,4,0,0,0-5.75,1.62C49.47,332.65,52.58,337.92,54.81,340Z" fill="#fff"/>
        <path id="Path_729" data-name="Path 729" d="M152.83,314.78s-17.13,17.68-17,39.39,17.37,39.25,17.37,39.25,17.12-17.68,17-39.4S152.83,314.78,152.83,314.78Z" fill="#fff"/>
        <path id="Path_730" data-name="Path 730" d="M128.41,367.18a6.592,6.592,0,0,0,.62-.78c1.25-1.89,2.31-4.64,1.51-6.9a4,4,0,0,0-5.44-2.5c-2.32,1.09-3.47,4.82-3.71,7.87-.93-.21-1.77-.37-2.48-.49l-.93-2.09c-.34-.72-.58-1.45-.87-2.18-.41-1.09-.78-2.23-1.15-3.36,1.35-.61,5.3-2.45,6.77-4.08s3-4.23,2.53-6.59a4,4,0,0,0-5-3.26c-3.25,1-5.16,6.78-5.23,9.81a10.036,10.036,0,0,0,.12,1.5c-.33-1.12-.66-2.24-1-3.38-.83-3.26-1.58-6.59-2.35-9.93-.16-.7-.33-1.39-.49-2.09,1.14-.5,5.43-2.46,7-4.17s3-4.23,2.54-6.59a4,4,0,0,0-5-3.26c-3.25,1-5.16,6.78-5.23,9.81,0,.11.07.87.14,1.73-.44-1.81-.9-3.61-1.42-5.38a69.66,69.66,0,0,0-3.19-8.92c.4-.18,5.48-2.37,7.19-4.27,1.52-1.67,3-4.23,2.54-6.59a4,4,0,0,0-5-3.26c-3.25,1-5.16,6.78-5.23,9.81,0,.21.25,3,.37,4a.489.489,0,0,0,0-.11,52.54,52.54,0,0,0-4.66-8.05,71,71,0,0,0-5.2-6.48c-1.68-1.94-3.35-3.62-4.83-5.09-.81-.79-1.57-1.5-2.28-2.15h.07c.07,0-1.58-3.78-1.71-4-1.52-2.62-6-6.79-9.31-6.07a4,4,0,0,0-2.81,5.27c.74,2.28,3.26,3.81,5.4,4.55s7,.39,8.16.29c.73.69,1.49,1.44,2.32,2.29,1.45,1.5,3.07,3.2,4.71,5.18.44.52.89,1.1,1.33,1.66-.94-.78-2.25-1.84-2.39-1.93-2.56-1.62-8.45-3.26-11.06-1.09a4,4,0,0,0-.07,6c1.71,1.68,4.65,1.88,6.89,1.55s6.5-2.95,7.41-3.53a44.449,44.449,0,0,1,2.86,4,51.921,51.921,0,0,1,4.43,8.05c.07.16.12.34.19.5-.4-.46-2.78-2.87-3-3-2.36-1.89-8-4.17-10.87-2.3a4,4,0,0,0-.72,5.93c1.51,1.85,4.41,2.38,6.67,2.29,2.61-.09,7.74-2.68,7.94-2.78a71,71,0,0,1,2.89,8.7c.59,2.19,1.09,4.43,1.57,6.68-.53-.59-2.75-2.83-2.92-3-2.37-1.9-8-4.17-10.88-2.31a4,4,0,0,0-.72,5.93c1.51,1.86,4.42,2.38,6.68,2.3,2.54-.09,7.47-2.55,7.88-2.76.22,1,.45,2,.66,3.07.69,3.35,1.37,6.72,2.14,10,.27,1.15.57,2.26.88,3.38-.84-.86-2.38-2.42-2.52-2.53-2.37-1.9-8-4.18-10.88-2.31a4,4,0,0,0-.72,5.93c1.51,1.86,4.42,2.38,6.68,2.3s6.46-2.06,7.63-2.64c.51,1.86,1.07,3.7,1.69,5.48.29.76.54,1.55.86,2.27l.47,1.14-.65-.07s-.05,1.06,0,2.79c-2.49-1.78-6.08-3.31-8.42-2.23a4,4,0,0,0-1.61,5.75,6,6,0,0,0,.52.72,15.59,15.59,0,0,0,3.22,7.17c.13.15,1.82,1.71,2.71,2.49-.86-.46-1.71-.92-2.59-1.42-1.27-.7-2.59-1.49-3.88-2.24l-2-1.26c-.68-.42-1.28-.89-1.93-1.34-.94-.68-1.88-1.43-2.81-2.17.79-1.25,3.07-5,3.39-7.13s.16-5.18-1.51-6.9a4,4,0,0,0-6,0c-2.18,2.6-.56,8.5,1,11.07a10.8,10.8,0,0,0,.93,1.18c-.89-.75-1.79-1.5-2.67-2.29-2.49-2.25-5-4.62-7.44-7l-1.56-1.47c.68-1,3.18-5,3.52-7.32s.15-5.18-1.52-6.89a4,4,0,0,0-6,0c-2.18,2.6-.57,8.5,1,11.06a13,13,0,0,0,1.07,1.37c-1.37-1.27-2.75-2.51-4.15-3.7a71.476,71.476,0,0,0-7.59-5.69c.24-.36,3.26-5,3.64-7.52.34-2.24.16-5.18-1.52-6.89a4,4,0,0,0-6,0c-2.18,2.6-.56,8.5,1.05,11.06.11.18,1.85,2.35,2.5,3.11l-.09-.07a53,53,0,0,0-8.34-4.14,70.614,70.614,0,0,0-7.89-2.62c-2.48-.69-4.8-1.17-6.84-1.58-1.12-.21-2.14-.38-3.09-.54h.06s-3.41-2.28-3.65-2.4c-2.71-1.35-8.74-2.35-11.11.07a4,4,0,0,0,.56,5.95c1.88,1.49,4.82,1.38,7,.82s6-3.53,7-4.27c1,.18,2,.38,3.2.63,2,.45,4.33,1,6.79,1.72l2,.65c-1.22-.13-2.89-.28-3.06-.28-3,.06-8.84,1.94-9.83,5.19a4,4,0,0,0,3.24,5c2.35.45,4.92-1,6.6-2.51s3.8-6.05,4.24-7c1.49.51,3,1.07,4.57,1.74a51.339,51.339,0,0,1,8.14,4.27c.15.1.29.22.44.31-.6-.16-3.91-.86-4.15-.88-3-.28-9,1-10.34,4.08a4,4,0,0,0,2.97,5.3c2.29.71,5-.45,6.84-1.77,2.12-1.51,5-6.5,5.08-6.69a69.6,69.6,0,0,1,7.21,5.66c1.7,1.5,3.35,3.09,5,4.7-.78-.2-3.86-.84-4.08-.86-3-.28-9,.95-10.34,4.07a4,4,0,0,0,2.66,5.34c2.29.72,5-.45,6.84-1.76,2.07-1.48,4.82-6.25,5-6.66.75.74,1.5,1.46,2.24,2.2,2.43,2.42,4.85,4.85,7.32,7.18.85.8,1.72,1.56,2.59,2.33-1.17-.26-3.31-.71-3.5-.72-3-.28-9,.95-10.34,4.07a4,4,0,0,0,2.67,5.34c2.28.72,5-.45,6.83-1.76s4.25-5.28,4.92-6.41c1.45,1.27,2.92,2.49,4.43,3.63.66.48,1.3,1,2,1.42l1.95,1.31c1.36.84,2.62,1.63,3.91,2.38l1.9,1.09c-1.15-.44-3-1.12-3.15-1.16-2.94-.74-9-.42-10.84,2.46A4,4,0,0,0,99,389c2.15,1.05,5,.31,7-.71,2.22-1.12,5.57-5.27,6-5.78,1.55.89,3.08,1.74,4.52,2.51,3.84,2.05,7.19,3.69,9.8,4.92,8.45,7.31,20.36,8.11,20.36,8.11s.62-14.25-7.77-23.64A29.36,29.36,0,0,0,128.41,367.18Zm-15.1,13.9c.26-.58,2.29-5.11,2.43-7.67.47-.08.94-.18,1.4-.29a33,33,0,0,0,5.25,12.55q-2.3-1.1-5-2.44c-1.28-.66-2.67-1.39-4.08-2.15Z" fill="#fff"/>
        <path id="Path_731" data-name="Path 731" d="M190.79,364.45s-14.27.44-23,9.51-8.62,23.34-8.62,23.34,14.26-.44,23-9.51S190.79,364.45,190.79,364.45Z" fill="#fff"/>
      </g>
      <path id="Path_732" data-name="Path 732" d="M153.53,373.64l14.01-12.6-.6-.66-13.41,12.06-.08-16.51.08.05,11.85-17.33-.75-.5L153.45,354.5l-.17-39.72h-.9l.11,26.97-8.92-7.72-.58.68,9.51,8.23.08,19.28-13.52-11.97-.59.68,14.12,12.49.07,17.55L142.5,373l-.55.71,10.72,8.41.05,11.3.9-.01-.09-19.78Z" fill="#fff"/>
      <path id="Path_733" data-name="Path 733" d="M140.63,378.5l-.9-.1-1.13,9.98-6.01-6.73h.01l-1.53-12.07-.89.11,1.37,10.8-14.96-16.72-.67.6,10.15,11.34-6.42.08.01.9,7.2-.09,7.12,7.96-10.05.01.01.89,10.84-.01,6.47,7.23-7.09.43.06.9,7.79-.47,4.31,4.81.67-.6-7.59-8.48Z" fill="#fff"/>
      <path id="Path_734" data-name="Path 734" d="M174.48,382.06l11.93-2.42-.18-.89-10.67,2.17,15.55-16.16-.64-.62L179.91,375.1l-.56-6.4-.89.08.63,7.18-7.4,7.69-.77-10.02-.89.07.82,10.82-6.73,6.99-.95-7.03-.89.12,1.05,7.73-4.48,4.66.64.62,7.89-8.2,10.84.42.03-.9-10.03-.38,6.26-6.5Z" fill="#fff"/>
    </g>
    <g id="freepik--device-2--inject-1--inject-35">
      <rect id="Rectangle_8" data-name="Rectangle 8" width="78.63" height="141.7" rx="6.75" transform="translate(383.53 262.76)" fill="#263238" stroke="#263238" stroke-miterlimit="10" stroke-width="1"/>
      <path id="Path_735" data-name="Path 735" d="M428.28,271.23h-9.79a1,1,0,0,1-1-1h0a1,1,0,0,1,1-1h9.79a1,1,0,0,1,1,1h0A1,1,0,0,1,428.28,271.23Z" fill="#fff"/>
      <path id="Path_736" data-name="Path 736" d="M457.19,391.8H388.5V271.34h16.28l1.83,1.52a3.58,3.58,0,0,0,2.28.82h28.72a3.58,3.58,0,0,0,2.36-.88l1.65-1.46h15.57Z" fill="#e6b45a" stroke="#263238" stroke-linecap="round" stroke-linejoin="round" stroke-width="1"/>
      <path id="Path_737" data-name="Path 737" d="M425,395.51a1.56,1.56,0,1,0-.46,1.107,1.57,1.57,0,0,0,.46-1.107Z" fill="#fff"/>
      <line id="Line_12" data-name="Line 12" x1="61.04" transform="translate(392.46 367.46)" fill="none" stroke="#263238" stroke-linecap="round" stroke-linejoin="round" stroke-width="1"/>
      <line id="Line_13" data-name="Line 13" x1="61.04" transform="translate(392.46 372.66)" fill="none" stroke="#263238" stroke-linecap="round" stroke-linejoin="round" stroke-width="1"/>
      <line id="Line_14" data-name="Line 14" x1="61.04" transform="translate(392.46 377.86)" fill="none" stroke="#263238" stroke-linecap="round" stroke-linejoin="round" stroke-width="1"/>
      <line id="Line_15" data-name="Line 15" x1="61.04" transform="translate(392.46 383.06)" fill="none" stroke="#263238" stroke-linecap="round" stroke-linejoin="round" stroke-width="1"/>
      <line id="Line_16" data-name="Line 16" x1="61.04" transform="translate(392.46 388.26)" fill="none" stroke="#263238" stroke-linecap="round" stroke-linejoin="round" stroke-width="1"/>
      <rect id="Rectangle_9" data-name="Rectangle 9" width="61.28" height="13.17" rx="1.75" transform="translate(392.5 279.59)" fill="#263238" stroke="#263238" stroke-linecap="round" stroke-linejoin="round" stroke-width="1"/>
      <rect id="Rectangle_10" data-name="Rectangle 10" width="61.77" height="13.16" rx="1.75" transform="translate(392 296.36)" fill="#fff" stroke="#263238" stroke-linecap="round" stroke-linejoin="round" stroke-width="1"/>
      <rect id="Rectangle_11" data-name="Rectangle 11" width="61.77" height="13.17" rx="1.75" transform="translate(392 315.6)" fill="#fff" stroke="#263238" stroke-linecap="round" stroke-linejoin="round" stroke-width="1"/>
      <rect id="Rectangle_12" data-name="Rectangle 12" width="61.59" height="32.15" rx="3.52" transform="translate(392 332.11)" fill="#263238" stroke="#263238" stroke-linecap="round" stroke-linejoin="round" stroke-width="1"/>
      <path id="Path_738" data-name="Path 738" d="M430.42,340.25a4.57,4.57,0,1,0-4.57,4.57,4.57,4.57,0,0,0,4.57-4.57Z" fill="#fff" stroke="#263238" stroke-linecap="round" stroke-linejoin="round" stroke-width="1"/>
      <path id="Path_739" data-name="Path 739" d="M395.59,364.26H450c2,0,3.59-1.09,3.59-2.43V350.41l-17.19-8.27-12.25,14.17L414,349.4l-20.13,14.53a4.81,4.81,0,0,0,1.72.33Z" fill="#fff" stroke="#263238" stroke-linecap="round" stroke-linejoin="round" stroke-width="1"/>
      <path id="Path_740" data-name="Path 740" d="M409.33,228.52h-6v-7L385.19,232l18.13,10.47v-7h2.51v15.34h7V232a3.5,3.5,0,0,0-3.5-3.48Z" fill="#263238"/>
    </g>
    <g id="freepik--device-1--inject-1--inject-35">
      <path id="Path_741" data-name="Path 741" d="M272.42,372.64v-23.7h-69.8v23.7a34.312,34.312,0,0,1-7.412,21.3L192.15,397.8h90.74l-3.05-3.86a34.32,34.32,0,0,1-7.42-21.3Z" fill="#fff" stroke="#263238" stroke-linecap="round" stroke-linejoin="round" stroke-width="1.095"/>
      <path id="Path_742" data-name="Path 742" d="M198.33,389.23h78.38a34.34,34.34,0,0,1-4.29-16.59v-23.7h-69.8v23.7a34.221,34.221,0,0,1-4.29,16.591Z" fill="#e6b45a"/>
      <rect id="Rectangle_13" data-name="Rectangle 13" width="69.8" height="10.01" transform="translate(202.62 352.5)" fill="#263238" stroke="#263238" stroke-linecap="round" stroke-linejoin="round" stroke-width="1.095"/>
      <rect id="Rectangle_14" data-name="Rectangle 14" width="280.55" height="210.41" rx="9.29" transform="translate(97.25 146)" fill="#263238" stroke="#263238" stroke-linecap="round" stroke-linejoin="round" stroke-width="1.095"/>
      <path id="Path_743" data-name="Path 743" d="M97.25,323.7H377.8v23.41a9.29,9.29,0,0,1-9.29,9.29h-262a9.29,9.29,0,0,1-9.29-9.29V323.7Z" fill="#fff" stroke="#263238" stroke-linecap="round" stroke-linejoin="round" stroke-width="1.095"/>
      <rect id="Rectangle_15" data-name="Rectangle 15" width="252.32" height="148.65" transform="translate(111.36 159.09)" fill="#e6b45a" stroke="#263238" stroke-linecap="round" stroke-linejoin="round" stroke-width="1.095"/>
      <path id="Path_744" data-name="Path 744" d="M242.7,340.06a5.18,5.18,0,1,0-5.18,5.17,5.18,5.18,0,0,0,5.18-5.17Z" fill="#263238" stroke="#263238" stroke-linecap="round" stroke-linejoin="round" stroke-width="1.095"/>
      <rect id="Rectangle_16" data-name="Rectangle 16" width="90.76" height="4.23" transform="translate(192.15 397.8)" fill="#fff" stroke="#263238" stroke-linecap="round" stroke-linejoin="round" stroke-width="1.095"/>
      <rect id="Rectangle_17" data-name="Rectangle 17" width="220.93" height="22.36" rx="3.52" transform="translate(130.46 175.74)" fill="#263238" stroke="#263238" stroke-linecap="round" stroke-linejoin="round" stroke-width="1"/>
      <rect id="Rectangle_18" data-name="Rectangle 18" width="64.25" height="49.51" rx="3.52" transform="translate(129.38 240.7)" fill="#263238" stroke="#263238" stroke-linecap="round" stroke-linejoin="round" stroke-width="1"/>
      <path id="Path_745" data-name="Path 745" d="M170.9,251.61a5.59,5.59,0,1,0-5.59,5.59A5.59,5.59,0,0,0,170.9,251.61Z" fill="#fff" stroke="#263238" stroke-linecap="round" stroke-linejoin="round" stroke-width="1"/>
      <path id="Path_746" data-name="Path 746" d="M133.12,290.21h56.76a3.75,3.75,0,0,0,3.75-3.75V268.88L175.7,256.14,162.92,278l-10.65-10.65-21,22.39A3.73,3.73,0,0,0,133.12,290.21Z" fill="#fff" stroke="#263238" stroke-linecap="round" stroke-linejoin="round" stroke-width="1"/>
      <rect id="Rectangle_19" data-name="Rectangle 19" width="98.47" height="22.36" rx="3.52" transform="translate(132.04 206.62)" fill="#fff" stroke="#263238" stroke-linecap="round" stroke-linejoin="round" stroke-width="1"/>
      <rect id="Rectangle_20" data-name="Rectangle 20" width="98.47" height="22.36" rx="3.52" transform="translate(252.93 206.62)" fill="#fff" stroke="#263238" stroke-linecap="round" stroke-linejoin="round" stroke-width="1"/>
      <line id="Line_17" data-name="Line 17" x1="139.91" transform="translate(209.86 241.76)" fill="none" stroke="#263238" stroke-linecap="round" stroke-linejoin="round" stroke-width="1"/>
      <line id="Line_18" data-name="Line 18" x1="139.91" transform="translate(209.86 251.34)" fill="none" stroke="#263238" stroke-linecap="round" stroke-linejoin="round" stroke-width="1"/>
      <line id="Line_19" data-name="Line 19" x1="139.91" transform="translate(209.86 260.93)" fill="none" stroke="#263238" stroke-linecap="round" stroke-linejoin="round" stroke-width="1"/>
      <line id="Line_20" data-name="Line 20" x1="139.91" transform="translate(209.86 270.51)" fill="none" stroke="#263238" stroke-linecap="round" stroke-linejoin="round" stroke-width="1"/>
      <line id="Line_21" data-name="Line 21" x1="139.91" transform="translate(209.86 280.09)" fill="none" stroke="#263238" stroke-linecap="round" stroke-linejoin="round" stroke-width="1"/>
      <line id="Line_22" data-name="Line 22" x1="139.91" transform="translate(209.86 289.68)" fill="none" stroke="#263238" stroke-linecap="round" stroke-linejoin="round" stroke-width="1"/>
      <rect id="Rectangle_21" data-name="Rectangle 21" width="227.87" height="132.04" transform="translate(128.13 168.64)" fill="none" stroke="#fff" stroke-linecap="round" stroke-linejoin="round" stroke-width="2"/>
      <path id="Path_747" data-name="Path 747" d="M132.54,168.64a4.4,4.4,0,1,0-1.289,3.121,4.41,4.41,0,0,0,1.289-3.121Z" fill="#fff"/>
      <path id="Path_748" data-name="Path 748" d="M360.41,168.64a4.4,4.4,0,1,0-1.285,3.118,4.41,4.41,0,0,0,1.285-3.118Z" fill="#fff"/>
      <path id="Path_749" data-name="Path 749" d="M244.43,168.64a4.4,4.4,0,1,0-1.289,3.121,4.41,4.41,0,0,0,1.289-3.121Z" fill="#fff"/>
      <path id="Path_750" data-name="Path 750" d="M244.43,300.84a4.4,4.4,0,1,0-1.292,3.115,4.41,4.41,0,0,0,1.292-3.115Z" fill="#fff"/>
      <path id="Path_751" data-name="Path 751" d="M132.54,300.84a4.4,4.4,0,1,0-1.292,3.115,4.41,4.41,0,0,0,1.292-3.115Z" fill="#fff"/>
      <path id="Path_752" data-name="Path 752" d="M360.41,299.24a4.41,4.41,0,1,0-4.4,4.4,4.41,4.41,0,0,0,4.4-4.4Z" fill="#fff"/>
    </g>
  </g>
</svg>
